<svg width="595" height="713" viewBox="0 0 595 713" fill="none" xmlns="http://www.w3.org/2000/svg">
<ellipse cx="181.318" cy="171.859" rx="181.318" ry="171.859" transform="matrix(0.919246 0.393684 -0.390098 0.920773 366.648 253.75)" fill="url(#paint0_radial_20_47)"/>
<g filter="url(#filter0_f_20_47)">
<ellipse cx="77.1574" cy="72.3601" rx="77.1574" ry="72.3601" transform="matrix(0.991184 0.132491 -0.131474 0.99132 377.482 47)" fill="#A4D8FE"/>
</g>
<g filter="url(#filter1_f_20_47)">
<ellipse cx="41.4133" cy="41.608" rx="41.4133" ry="41.608" transform="matrix(0.96597 -0.258656 0.255762 0.96674 84 225.067)" fill="#FFEF03"/>
</g>
<g filter="url(#filter2_f_20_47)">
<ellipse cx="55.4214" cy="51.2022" rx="55.4214" ry="51.2022" transform="matrix(0.994611 0.103681 -0.102578 0.994725 196.869 411.317)" fill="#F07B6F"/>
</g>
<path fill-rule="evenodd" clip-rule="evenodd" d="M131.806 445.495C131.941 445.504 132.076 445.515 132.21 445.527C142.24 446.44 149.631 455.302 148.719 465.32C148.707 465.454 148.693 465.589 148.678 465.722L482.027 496.07C482.037 495.936 482.047 495.801 482.06 495.666C482.972 485.648 491.842 478.267 501.871 479.18C502.006 479.193 502.14 479.206 502.274 479.222L514.312 346.998C514.177 346.988 514.043 346.978 513.908 346.965C503.878 346.052 496.487 337.191 497.399 327.173C497.411 327.038 497.425 326.904 497.44 326.77L164.091 296.422C164.086 296.495 164.08 296.567 164.075 296.64C164.07 296.702 164.064 296.764 164.059 296.826C163.147 306.844 154.277 314.225 144.247 313.312C144.182 313.306 144.116 313.3 144.051 313.293C143.982 313.286 143.913 313.279 143.844 313.271L131.806 445.495Z" fill="white"/>
<mask id="path-6-inside-1_20_47" fill="white">
<path fill-rule="evenodd" clip-rule="evenodd" d="M155.063 459.8L476.817 489.093C476.826 488.969 476.835 488.844 476.847 488.72C477.689 479.465 486.22 472.677 495.901 473.558C496.031 473.57 496.161 473.583 496.29 473.598L507.41 351.448C507.281 351.439 507.151 351.429 507.02 351.417C497.34 350.536 490.175 342.319 491.017 333.064C491.029 332.939 491.041 332.815 491.056 332.692L169.301 303.4C169.293 303.524 169.283 303.648 169.271 303.773C168.429 313.027 159.898 319.815 150.217 318.934C150.087 318.922 149.958 318.909 149.828 318.894L138.708 441.044C138.838 441.053 138.968 441.064 139.098 441.075C148.779 441.957 155.943 450.174 155.101 459.429C155.089 459.553 155.077 459.677 155.063 459.8Z"/>
</mask>
<path fill-rule="evenodd" clip-rule="evenodd" d="M155.063 459.8L476.817 489.093C476.826 488.969 476.835 488.844 476.847 488.72C477.689 479.465 486.22 472.677 495.901 473.558C496.031 473.57 496.161 473.583 496.29 473.598L507.41 351.448C507.281 351.439 507.151 351.429 507.02 351.417C497.34 350.536 490.175 342.319 491.017 333.064C491.029 332.939 491.041 332.815 491.056 332.692L169.301 303.4C169.293 303.524 169.283 303.648 169.271 303.773C168.429 313.027 159.898 319.815 150.217 318.934C150.087 318.922 149.958 318.909 149.828 318.894L138.708 441.044C138.838 441.053 138.968 441.064 139.098 441.075C148.779 441.957 155.943 450.174 155.101 459.429C155.089 459.553 155.077 459.677 155.063 459.8Z" fill="white"/>
<path d="M476.817 489.093L476.487 492.715L480.193 493.052L480.446 489.34L476.817 489.093ZM155.063 459.8L151.449 459.388L151.027 463.085L154.733 463.423L155.063 459.8ZM496.29 473.598L495.885 477.213L499.576 477.626L499.912 473.928L496.29 473.598ZM507.41 351.448L511.033 351.778L511.369 348.079L507.664 347.82L507.41 351.448ZM491.056 332.692L494.669 333.104L495.091 329.407L491.385 329.069L491.056 332.692ZM169.301 303.4L169.631 299.777L165.925 299.44L165.672 303.153L169.301 303.4ZM149.828 318.894L150.234 315.28L146.543 314.866L146.206 318.565L149.828 318.894ZM138.708 441.044L135.086 440.714L134.749 444.413L138.454 444.673L138.708 441.044ZM477.147 485.47L155.392 456.178L154.733 463.423L476.487 492.715L477.147 485.47ZM473.224 488.39C473.211 488.542 473.199 488.694 473.188 488.845L480.446 489.34C480.453 489.243 480.46 489.146 480.469 489.05L473.224 488.39ZM496.231 469.936C484.705 468.887 474.263 476.983 473.224 488.39L480.469 489.05C481.116 481.947 487.736 476.467 495.571 477.181L496.231 469.936ZM496.695 469.983C496.541 469.966 496.386 469.95 496.231 469.936L495.571 477.181C495.676 477.19 495.781 477.201 495.885 477.213L496.695 469.983ZM503.788 351.118L492.668 473.268L499.912 473.928L511.033 351.778L503.788 351.118ZM506.691 355.039C506.846 355.053 507.001 355.066 507.156 355.077L507.664 347.82C507.56 347.813 507.455 347.804 507.35 347.795L506.691 355.039ZM487.395 332.734C486.357 344.141 495.165 353.99 506.691 355.039L507.35 347.795C499.515 347.081 493.993 340.496 494.64 333.394L487.395 332.734ZM487.442 332.279C487.424 332.431 487.409 332.582 487.395 332.734L494.64 333.394C494.649 333.297 494.658 333.2 494.669 333.104L487.442 332.279ZM168.971 307.022L490.726 336.314L491.385 329.069L169.631 299.777L168.971 307.022ZM172.894 304.102C172.908 303.95 172.92 303.798 172.93 303.647L165.672 303.153C165.666 303.249 165.658 303.346 165.649 303.443L172.894 304.102ZM149.888 322.556C161.414 323.606 171.855 315.509 172.894 304.102L165.649 303.443C165.003 310.545 158.383 316.025 150.547 315.312L149.888 322.556ZM149.423 322.509C149.577 322.526 149.732 322.542 149.888 322.556L150.547 315.312C150.442 315.302 150.338 315.291 150.234 315.28L149.423 322.509ZM142.33 441.374L153.451 319.224L146.206 318.565L135.086 440.714L142.33 441.374ZM138.454 444.673C138.558 444.68 138.663 444.688 138.768 444.698L139.428 437.453C139.272 437.439 139.117 437.427 138.962 437.416L138.454 444.673ZM138.768 444.698C146.604 445.411 152.125 451.996 151.478 459.099L158.723 459.758C159.762 448.351 150.953 438.502 139.428 437.453L138.768 444.698ZM151.478 459.099C151.47 459.195 151.46 459.292 151.449 459.388L158.676 460.213C158.694 460.062 158.709 459.91 158.723 459.758L151.478 459.099Z" fill="#6B7280" mask="url(#path-6-inside-1_20_47)"/>
<rect x="431.302" y="483.411" width="0.808696" height="155.429" transform="rotate(-174.798 431.302 483.411)" stroke="#6B7280" stroke-width="0.808696" stroke-dasharray="11.46 11.46"/>
<path d="M188.208 355.505L185.11 355.223L182.011 354.941L182.293 351.843L182.576 348.745L182.858 345.646L185.956 345.928L189.054 346.21L192.152 346.492L191.87 349.591L191.588 352.689L191.306 355.787L188.208 355.505ZM187.926 358.604L191.024 358.886L191.306 355.787L194.405 356.069L194.687 352.971L194.969 349.873L195.251 346.775L192.152 346.492L192.435 343.394L189.336 343.112L186.238 342.83L183.14 342.548L183.422 339.45L186.52 339.732L189.618 340.014L192.717 340.296L192.435 343.394L195.533 343.676L195.815 340.578L192.717 340.296L192.999 337.198L189.9 336.916L186.802 336.633L183.704 336.351L180.605 336.069L180.323 339.168L180.041 342.266L179.759 345.364L179.477 348.463L179.195 351.561L178.913 354.659L178.631 357.757L181.729 358.039L184.828 358.322L187.926 358.604ZM210.181 360.63L213.279 360.912L213.561 357.813L213.843 354.715L214.125 351.617L214.407 348.519L214.689 345.42L214.971 342.322L211.873 342.04L211.591 345.138L208.493 344.856L205.395 344.574L202.296 344.292L202.578 341.194L199.48 340.912L199.198 344.01L198.916 347.108L198.634 350.207L198.352 353.305L198.07 356.403L197.788 359.501L200.886 359.783L201.168 356.685L201.45 353.587L201.732 350.489L202.014 347.39L205.112 347.672L208.211 347.954L211.309 348.236L211.027 351.335L210.745 354.433L210.463 357.531L210.181 360.63ZM211.873 342.04L212.155 338.942L209.057 338.66L205.959 338.377L202.86 338.095L202.578 341.194L205.677 341.476L208.775 341.758L211.873 342.04ZM232.436 362.656L232.718 359.557L234.41 340.968L231.312 340.686L231.03 343.784L229.619 359.275L226.521 358.993L228.214 340.403L225.115 340.121L223.423 358.711L220.325 358.429L220.607 355.331L220.889 352.233L221.171 349.134L221.735 342.938L222.017 339.839L218.919 339.557L218.637 342.656L218.354 345.754L218.072 348.852L217.79 351.95L217.508 355.049L217.226 358.147L216.944 361.245L232.436 362.656ZM260.048 346.426L272.441 347.554L272.723 344.456L269.625 344.174L266.527 343.891L263.428 343.609L260.33 343.327L257.232 343.045L256.95 346.144L256.668 349.242L256.386 352.34L256.103 355.438L255.821 358.537L255.539 361.635L255.257 364.733L258.356 365.015L261.454 365.297L264.552 365.58L267.65 365.862L267.933 362.763L271.031 363.045L271.313 359.947L271.595 356.849L271.877 353.75L268.779 353.468L269.061 350.37L265.963 350.088L262.864 349.806L259.766 349.524L260.048 346.426ZM264.834 362.481L261.736 362.199L258.638 361.917L258.92 358.819L259.202 355.721L259.484 352.622L262.582 352.904L265.68 353.186L268.779 353.468L268.497 356.567L268.215 359.665L267.933 362.763L264.834 362.481ZM282.021 351.55L281.739 354.648L284.837 354.93L285.119 351.832L282.021 351.55ZM288.782 345.918L288.499 349.016L285.401 348.734L285.119 351.832L288.217 352.114L287.371 361.409L287.089 364.507L286.807 367.606L289.905 367.888L290.187 364.789L290.469 361.691L290.752 358.593L291.034 355.494L291.316 352.396L291.598 349.298L291.88 346.2L288.782 345.918ZM278.358 357.465L281.457 357.747L281.739 354.648L278.64 354.366L279.487 345.071L276.388 344.789L276.106 347.888L275.824 350.986L275.542 354.084L275.26 357.182L274.978 360.281L274.696 363.379L274.414 366.477L277.512 366.759L277.794 363.661L278.358 357.465ZM293.852 365.123L293.57 368.221L296.669 368.503L296.951 365.405L293.852 365.123ZM297.233 362.307L296.951 365.405L300.049 365.687L300.331 362.589L300.613 359.491L300.895 356.392L301.459 350.196L304.558 350.478L307.656 350.76L305.964 369.35L309.062 369.632L311.036 347.944L307.938 347.662L304.84 347.379L298.643 346.815L298.361 349.914L298.079 353.012L297.797 356.11L297.515 359.209L297.233 362.307ZM325.402 367.995L322.304 367.713L319.206 367.431L316.107 367.149L316.389 364.051L316.671 360.953L316.954 357.854L320.052 358.136L323.15 358.418L323.432 355.32L320.334 355.038L317.236 354.756L317.518 351.658L320.616 351.94L323.714 352.222L326.813 352.504L329.911 352.786L330.193 349.688L327.095 349.406L323.996 349.123L320.898 348.841L317.8 348.559L314.701 348.277L314.419 351.376L314.137 354.474L313.855 357.572L313.573 360.67L313.291 363.769L313.009 366.867L312.727 369.965L315.825 370.247L318.924 370.529L322.022 370.812L325.12 371.094L328.218 371.376L328.501 368.277L325.402 367.995ZM338.08 372.273L341.178 372.556L341.46 369.457L341.743 366.359L342.025 363.261L342.307 360.162L342.589 357.064L342.871 353.966L345.969 354.248L349.067 354.53L349.349 351.432L346.251 351.149L343.153 350.867L340.055 350.585L336.956 350.303L333.858 350.021L333.576 353.12L336.674 353.402L339.773 353.684L339.49 356.782L339.208 359.88L338.926 362.979L338.644 366.077L338.362 369.175L338.08 372.273ZM379.774 372.945L376.675 372.663L373.577 372.381L373.859 369.283L374.141 366.184L374.423 363.086L377.522 363.368L380.62 363.65L383.718 363.932L383.436 367.031L383.154 370.129L382.872 373.227L379.774 372.945ZM379.492 376.043L382.59 376.326L382.872 373.227L385.97 373.509L386.252 370.411L386.534 367.313L386.816 364.214L383.718 363.932L384 360.834L380.902 360.552L377.804 360.27L374.705 359.988L374.987 356.89L378.086 357.172L381.184 357.454L384.282 357.736L384 360.834L387.098 361.116L387.381 358.018L384.282 357.736L384.564 354.637L381.466 354.355L378.368 354.073L375.269 353.791L372.171 353.509L371.889 356.608L371.607 359.706L371.325 362.804L371.043 365.902L370.761 369.001L370.479 372.099L370.197 375.197L373.295 375.479L376.393 375.761L379.492 376.043ZM398.93 374.689L395.832 374.407L392.734 374.125L392.452 377.223L395.55 377.505L398.648 377.787L401.746 378.07L402.028 374.971L398.93 374.689ZM402.028 374.971L405.127 375.253L405.409 372.155L405.691 369.057L405.973 365.958L406.255 362.86L406.537 359.762L403.439 359.48L403.157 362.578L402.875 365.676L402.593 368.775L402.311 371.873L402.028 374.971ZM392.734 374.125L393.016 371.027L393.298 367.928L393.58 364.83L393.862 361.732L394.144 358.634L391.046 358.351L390.764 361.45L390.481 364.548L390.199 367.646L389.917 370.745L389.635 373.843L392.734 374.125ZM403.439 359.48L403.721 356.381L400.623 356.099L397.524 355.817L394.426 355.535L394.144 358.634L397.242 358.916L400.341 359.198L403.439 359.48ZM183.357 374.477L183.075 377.575L186.173 377.857L186.455 374.759L183.357 374.477ZM188.989 381.238L187.861 393.631L190.959 393.913L192.088 381.52L188.989 381.238ZM176.596 380.109L175.468 392.503L178.566 392.785L179.694 380.391L176.596 380.109ZM179.977 377.293L179.694 380.391L188.989 381.238L189.271 378.139L179.977 377.293ZM181.382 396.165L181.1 399.263L184.199 399.545L184.481 396.447L181.382 396.165ZM178.566 392.785L178.284 395.883L187.579 396.729L187.861 393.631L178.566 392.785ZM182.793 380.674L181.664 393.067L184.763 393.349L185.891 380.956L182.793 380.674ZM194.342 397.345L197.441 397.627L197.723 394.529L198.005 391.43L198.287 388.332L198.569 385.234L201.667 385.516L204.766 385.798L207.864 386.08L208.146 382.982L205.048 382.7L201.949 382.418L198.851 382.135L199.133 379.037L202.231 379.319L205.33 379.601L208.428 379.883L208.146 382.982L211.244 383.264L211.526 380.165L208.428 379.883L208.71 376.785L205.612 376.503L202.513 376.221L199.415 375.939L196.317 375.657L196.035 378.755L195.753 381.853L195.471 384.952L195.189 388.05L194.907 391.148L194.624 394.247L194.342 397.345ZM221.106 384.162L220.824 387.26L223.922 387.542L224.204 384.444L221.106 384.162ZM227.867 378.529L227.585 381.627L224.486 381.345L224.204 384.444L227.302 384.726L226.456 394.021L226.174 397.119L225.892 400.217L228.99 400.499L229.272 397.401L229.555 394.303L229.837 391.204L230.119 388.106L230.401 385.008L230.683 381.909L230.965 378.811L227.867 378.529ZM217.443 390.076L220.542 390.358L220.824 387.26L217.725 386.978L218.572 377.683L215.473 377.401L215.191 380.499L214.909 383.597L214.627 386.696L214.345 389.794L214.063 392.892L213.781 395.991L213.499 399.089L216.597 399.371L216.879 396.273L217.443 390.076ZM232.938 397.735L232.656 400.833L235.754 401.115L236.036 398.017L232.938 397.735ZM236.318 394.918L236.036 398.017L239.134 398.299L239.416 395.2L239.698 392.102L239.98 389.004L240.544 382.807L243.643 383.089L246.741 383.371L245.049 401.961L248.147 402.243L250.121 380.555L247.023 380.273L243.925 379.991L237.728 379.427L237.446 382.525L237.164 385.623L236.882 388.722L236.6 391.82L236.318 394.918ZM264.205 403.705L267.304 403.987L267.586 400.889L267.868 397.791L268.15 394.692L268.432 391.594L268.714 388.496L268.996 385.397L265.898 385.115L265.616 388.214L262.517 387.932L259.419 387.65L256.321 387.367L256.603 384.269L253.504 383.987L253.222 387.085L252.94 390.184L252.658 393.282L252.376 396.38L252.094 399.479L251.812 402.577L254.91 402.859L255.192 399.761L255.474 396.662L255.757 393.564L256.039 390.466L259.137 390.748L262.235 391.03L265.334 391.312L265.051 394.41L264.769 397.509L264.487 400.607L264.205 403.705ZM265.898 385.115L266.18 382.017L263.081 381.735L259.983 381.453L256.885 381.171L256.603 384.269L259.701 384.551L262.799 384.833L265.898 385.115ZM283.362 405.449L286.46 405.731L286.742 402.633L287.024 399.535L287.306 396.436L287.588 393.338L287.87 390.24L288.153 387.141L288.435 384.043L285.336 383.761L285.054 386.859L284.772 389.958L281.674 389.676L278.576 389.393L275.477 389.111L275.759 386.013L276.041 382.915L272.943 382.633L272.661 385.731L272.379 388.829L272.097 391.928L271.815 395.026L271.533 398.124L271.251 401.223L270.969 404.321L274.067 404.603L274.349 401.505L274.631 398.406L274.913 395.308L275.195 392.21L278.293 392.492L281.392 392.774L284.49 393.056L284.208 396.154L283.926 399.253L283.644 402.351L283.362 405.449ZM303.929 391.702L307.027 391.984L307.309 388.885L304.211 388.603L303.929 391.702ZM299.702 403.813L296.604 403.531L293.506 403.249L293.223 406.347L296.322 406.629L299.42 406.911L302.518 407.193L302.8 404.095L299.702 403.813ZM302.8 404.095L305.899 404.377L306.181 401.279L303.083 400.997L302.8 404.095ZM293.506 403.249L293.788 400.15L294.07 397.052L294.352 393.954L294.634 390.855L294.916 387.757L291.818 387.475L291.536 390.573L291.253 393.672L290.971 396.77L290.689 399.868L290.407 402.967L293.506 403.249ZM304.211 388.603L304.493 385.505L301.395 385.223L298.296 384.941L295.198 384.659L294.916 387.757L298.014 388.039L301.112 388.321L304.211 388.603Z" fill="black"/>
<path d="M468.409 461.432L457.952 460.48L457.689 463.368L455.698 463.187L455.906 460.896C455.942 460.498 455.761 460.281 455.363 460.244L454.467 460.163L454.657 458.071L468.599 459.341L468.409 461.432ZM465.947 455.392L464.254 455.238L455.472 449.116L455.772 445.83L464.834 446.655L464.988 444.962L466.88 445.134L466.726 446.827L469.714 447.099L469.524 449.191L466.536 448.919L465.947 455.392ZM464.281 452.73L464.644 448.746L458.171 448.157L458.134 448.555L464.181 452.721L464.281 452.73ZM467.772 433.792C466.931 433.033 465.681 432.578 464.021 432.427C462.361 432.275 461.055 432.498 460.104 433.094C459.14 433.689 458.613 434.471 458.525 435.441C458.437 436.41 458.813 437.274 459.654 438.034C460.482 438.792 461.726 439.247 463.386 439.398C465.046 439.549 466.358 439.327 467.323 438.732C468.274 438.136 468.794 437.353 468.882 436.384C468.97 435.414 468.6 434.55 467.772 433.792ZM458.104 439.399C456.914 438.206 456.39 436.826 456.533 435.259C456.676 433.692 457.44 432.43 458.826 431.472C460.212 430.513 462.007 430.135 464.211 430.335C466.415 430.536 468.113 431.233 469.303 432.425C470.493 433.618 471.016 434.998 470.874 436.565C470.731 438.132 469.967 439.394 468.581 440.353C467.195 441.311 465.4 441.69 463.196 441.489C460.992 441.288 459.294 440.592 458.104 439.399ZM468.485 427.508L466.792 427.354L458.011 421.232L458.31 417.946L467.373 418.771L467.527 417.078L469.419 417.25L469.265 418.943L472.252 419.215L472.062 421.307L469.074 421.035L468.485 427.508ZM466.82 424.846L467.182 420.862L460.709 420.273L460.673 420.671L466.72 424.837L466.82 424.846ZM472.705 414.24L470.913 414.077L465.659 407.814C465.309 407.394 464.995 407.098 464.716 406.925C464.425 406.738 464.04 406.623 463.562 406.579C462.805 406.51 462.202 406.663 461.753 407.037C461.292 407.397 461.029 407.935 460.964 408.652C460.9 409.356 461.098 409.97 461.559 410.494C462.02 411.018 462.642 411.315 463.426 411.387L463.235 413.478C461.841 413.351 460.751 412.823 459.966 411.895C459.18 410.967 458.849 409.825 458.972 408.471C459.095 407.117 459.599 406.071 460.482 405.335C461.354 404.584 462.447 404.269 463.762 404.388C464.519 404.457 465.16 404.69 465.686 405.086C466.214 405.468 466.773 406.015 467.365 406.725L470.895 410.962L470.995 410.971L471.548 404.896L473.54 405.078L472.705 414.24ZM471.48 393.065C470.639 392.306 469.388 391.851 467.729 391.7C466.069 391.549 464.763 391.771 463.812 392.367C462.847 392.962 462.321 393.744 462.233 394.714C462.144 395.683 462.521 396.547 463.362 397.307C464.19 398.065 465.434 398.52 467.094 398.671C468.754 398.822 470.066 398.6 471.03 398.005C471.982 397.409 472.502 396.626 472.59 395.657C472.678 394.687 472.308 393.824 471.48 393.065ZM461.812 398.672C460.622 397.479 460.098 396.099 460.241 394.532C460.383 392.966 461.148 391.703 462.534 390.745C463.92 389.786 465.715 389.408 467.919 389.608C470.123 389.809 471.82 390.506 473.01 391.699C474.2 392.891 474.724 394.271 474.582 395.838C474.439 397.405 473.675 398.667 472.289 399.626C470.903 400.584 469.108 400.963 466.903 400.762C464.699 400.562 463.002 399.865 461.812 398.672ZM475.244 386.356L473.451 386.193L468.197 379.931C467.847 379.51 467.533 379.214 467.254 379.041C466.963 378.854 466.579 378.739 466.101 378.695C465.344 378.626 464.741 378.779 464.292 379.153C463.831 379.513 463.567 380.051 463.502 380.768C463.438 381.472 463.637 382.086 464.098 382.61C464.559 383.134 465.181 383.431 465.964 383.503L465.774 385.594C464.38 385.467 463.29 384.94 462.504 384.011C461.718 383.083 461.387 381.941 461.51 380.587C461.634 379.233 462.137 378.187 463.021 377.451C463.893 376.7 464.986 376.385 466.3 376.504C467.057 376.573 467.699 376.806 468.225 377.202C468.752 377.585 469.312 378.131 469.903 378.841L473.434 383.078L473.533 383.087L474.086 377.012L476.078 377.194L475.244 386.356ZM472.402 373.449L472.593 371.358C473.164 371.41 473.698 371.204 474.195 370.74C474.681 370.262 474.958 369.638 475.029 368.868C475.104 368.045 474.962 367.389 474.605 366.902C474.248 366.414 473.737 366.14 473.073 366.079C472.449 366.023 471.909 366.221 471.453 366.675C470.984 367.114 470.713 367.746 470.638 368.569L470.556 369.465L468.664 369.293L468.745 368.397C468.816 367.627 468.678 367.005 468.333 366.532C467.976 366.044 467.492 365.772 466.881 365.717C466.31 365.665 465.818 365.841 465.407 366.245C464.983 366.635 464.738 367.195 464.671 367.925C464.604 368.669 464.741 369.291 465.084 369.79C465.415 370.276 465.866 370.544 466.436 370.596L466.246 372.688C465.131 372.586 464.226 372.082 463.532 371.175C462.839 370.255 462.555 369.112 462.68 367.744C462.801 366.416 463.284 365.376 464.129 364.623C464.975 363.856 465.956 363.524 467.071 363.625C467.974 363.707 468.714 364.109 469.291 364.831C469.543 365.149 469.739 365.501 469.877 365.889L469.977 365.898C470.2 365.503 470.466 365.159 470.774 364.866C471.518 364.197 472.381 363.908 473.363 363.997C474.532 364.104 475.468 364.631 476.172 365.578C476.863 366.512 477.146 367.669 477.02 369.05C476.891 370.47 476.387 371.589 475.51 372.406C474.62 373.209 473.584 373.557 472.402 373.449Z" fill="#6B7280"/>
<path d="M173.022 429.969L173.91 420.209L175.723 420.374L175.367 424.278L179.759 424.678L180.115 420.774L181.927 420.939L181.039 430.698L179.226 430.533L179.594 426.49L175.202 426.09L174.834 430.134L173.022 429.969ZM190.096 431.523L194.47 422.081L197.119 422.322L199.716 432.399L197.694 432.215L197.146 430.056L193.047 429.683L192.117 431.707L190.096 431.523ZM193.785 428.063L196.712 428.33L195.743 424.305L195.464 424.28L193.785 428.063ZM220.287 434.272L221.175 424.512L225.707 424.924C226.543 425.001 227.194 425.313 227.66 425.861C228.125 426.41 228.321 427.088 228.248 427.897C228.193 428.501 227.982 429.016 227.615 429.442C227.428 429.641 227.25 429.793 227.081 429.9L227.075 429.969C227.268 430.109 227.439 430.293 227.587 430.522C227.916 431.021 228.052 431.591 227.993 432.232C227.92 433.041 227.605 433.673 227.048 434.128C226.491 434.583 225.794 434.773 224.957 434.697L220.287 434.272ZM222.62 428.72L225.129 428.949C225.483 428.981 225.776 428.9 226.009 428.705C226.252 428.503 226.39 428.225 226.422 427.871C226.458 427.481 226.379 427.165 226.185 426.922C225.992 426.68 225.714 426.542 225.351 426.509L222.842 426.28L222.62 428.72ZM222.245 432.833L224.894 433.074C225.21 433.103 225.496 433.007 225.75 432.787C226.014 432.567 226.161 432.281 226.194 431.927C226.226 431.574 226.132 431.266 225.912 431.002C225.702 430.739 225.439 430.594 225.123 430.565L222.474 430.324L222.245 432.833ZM244.657 432.976L246.539 433.147C246.46 433.402 246.351 433.664 246.214 433.933C246.087 434.202 245.886 434.503 245.612 434.834C245.349 435.157 245.051 435.439 244.72 435.681C244.389 435.922 243.968 436.114 243.459 436.255C242.95 436.386 242.403 436.426 241.817 436.372C240.479 436.25 239.397 435.674 238.573 434.643C237.748 433.612 237.402 432.371 237.534 430.921C237.666 429.471 238.23 428.314 239.228 427.449C240.225 426.584 241.393 426.212 242.731 426.334C243.279 426.384 243.778 426.513 244.228 426.723C244.688 426.924 245.064 427.165 245.357 427.444C245.65 427.724 245.903 428.042 246.114 428.399C246.326 428.746 246.483 429.075 246.586 429.384C246.689 429.693 246.76 429.995 246.799 430.289L244.917 430.118C244.775 429.617 244.512 429.167 244.126 428.766C243.75 428.367 243.232 428.137 242.572 428.077C241.717 427.999 240.988 428.237 240.385 428.791C239.782 429.336 239.436 430.101 239.346 431.086C239.257 432.072 239.458 432.891 239.952 433.545C240.446 434.19 241.121 434.552 241.976 434.629C242.645 434.69 243.201 434.554 243.644 434.219C244.096 433.885 244.434 433.471 244.657 432.976ZM255.777 437.503L256.666 427.743L258.478 427.908L258.116 431.882L259.288 431.988C259.586 430.769 260.183 429.82 261.079 429.143C261.984 428.466 263.004 428.179 264.137 428.283C265.42 428.399 266.451 428.966 267.23 429.984C268.019 430.993 268.346 432.236 268.212 433.714C268.077 435.192 267.53 436.361 266.571 437.22C265.622 438.071 264.506 438.438 263.224 438.321C262.08 438.217 261.126 437.741 260.359 436.893C259.593 436.046 259.183 434.992 259.129 433.731L257.958 433.624L257.59 437.668L255.777 437.503ZM261.51 435.522C261.968 436.154 262.592 436.506 263.382 436.578C264.172 436.65 264.85 436.417 265.414 435.878C265.979 435.339 266.307 434.562 266.399 433.549C266.492 432.536 266.309 431.714 265.851 431.081C265.393 430.449 264.769 430.097 263.979 430.025C263.189 429.953 262.511 430.187 261.947 430.726C261.382 431.265 261.054 432.041 260.962 433.054C260.87 434.067 261.052 434.89 261.51 435.522ZM287.712 440.41L291.439 435.759L288.879 430.676L291.11 430.879L293.359 435.512L293.759 431.12L295.571 431.285L295.171 435.677L298.22 431.526L300.451 431.729L297.016 436.266L299.841 441.514L297.611 441.311L295.095 436.513L294.683 441.044L292.87 440.879L293.283 436.348L289.942 440.613L287.712 440.41ZM308.693 442.32L309.581 432.56L311.394 432.725L310.778 439.487L311.057 439.513L315.158 433.068L317.598 433.29L316.71 443.05L314.897 442.885L315.513 436.123L315.234 436.097L311.133 442.542L308.693 442.32ZM326.521 440.991L328.334 441.156C328.298 441.546 328.426 441.891 328.718 442.189C329.009 442.487 329.466 442.665 330.089 442.721C330.721 442.779 331.216 442.698 331.573 442.477C331.931 442.257 332.127 441.956 332.161 441.575C332.195 441.203 332.066 440.877 331.772 440.597C331.489 440.309 331.078 440.141 330.539 440.091L329.563 440.003L329.703 438.469L330.679 438.558C331.181 438.603 331.581 438.527 331.88 438.33C332.189 438.133 332.357 437.886 332.384 437.588C332.419 437.198 332.296 436.854 332.014 436.557C331.732 436.259 331.293 436.083 330.698 436.029C330.159 435.98 329.719 436.076 329.379 436.317C329.048 436.549 328.865 436.865 328.828 437.265L327.016 437.1C327.097 436.207 327.485 435.502 328.179 434.984C328.872 434.466 329.763 434.257 330.851 434.356C331.957 434.457 332.81 434.816 333.409 435.432C334.019 436.041 334.288 436.745 334.215 437.544C334.156 438.195 333.884 438.714 333.399 439.101C333.208 439.243 332.977 439.357 332.707 439.445L332.7 439.515C332.968 439.661 333.196 439.837 333.384 440.041C333.836 440.523 334.029 441.135 333.961 441.879C333.888 442.688 333.491 443.336 332.772 443.823C332.053 444.311 331.108 444.501 329.937 444.395C328.784 444.29 327.904 443.919 327.297 443.283C326.698 442.647 326.44 441.883 326.521 440.991ZM343.407 445.48L344.295 435.721L346.108 435.886L345.753 439.79L350.144 440.189L350.5 436.285L352.312 436.45L351.424 446.21L349.611 446.045L349.979 442.002L345.588 441.602L345.219 445.645L343.407 445.48ZM363.498 445.552L365.938 445.774C366.337 445.811 366.68 445.697 366.967 445.432C367.263 445.169 367.431 444.814 367.471 444.367C367.512 443.921 367.411 443.542 367.167 443.229C366.933 442.917 366.617 442.743 366.217 442.707L363.777 442.485L363.498 445.552ZM361.527 447.13L362.415 437.37L364.228 437.535L363.936 440.742L366.445 440.97C367.356 441.053 368.076 441.428 368.606 442.095C369.146 442.753 369.372 443.566 369.284 444.532C369.196 445.499 368.827 446.262 368.176 446.821C367.535 447.372 366.76 447.606 365.849 447.523L361.527 447.13Z" fill="black"/>
<path d="M413.599 416.139L416.08 416.91L415.31 419.391L412.828 418.62L413.599 416.139Z" fill="#6B7280"/>
<path fill-rule="evenodd" clip-rule="evenodd" d="M415.983 416.961L413.65 416.237L412.926 418.569L415.258 419.294L415.983 416.961ZM413.599 416.139L412.828 418.62L415.31 419.391L416.08 416.91L413.599 416.139Z" fill="#6B7280"/>
<path d="M414.369 413.658L416.851 414.429L416.08 416.91L413.599 416.139L414.369 413.658Z" fill="#6B7280"/>
<path fill-rule="evenodd" clip-rule="evenodd" d="M416.753 414.48L414.421 413.755L413.696 416.088L416.029 416.812L416.753 414.48ZM414.369 413.658L413.599 416.139L416.08 416.91L416.851 414.429L414.369 413.658Z" fill="#6B7280"/>
<path d="M415.054 411.452L417.536 412.223L416.851 414.429L414.369 413.658L415.054 411.452Z" fill="#6B7280"/>
<path fill-rule="evenodd" clip-rule="evenodd" d="M417.441 412.266L415.108 411.542L414.464 413.615L416.797 414.339L417.441 412.266ZM415.054 411.452L414.369 413.658L416.851 414.429L417.536 412.223L415.054 411.452Z" fill="#6B7280"/>
<path d="M415.911 408.695L418.392 409.466L417.536 412.223L415.054 411.452L415.911 408.695Z" fill="#6B7280"/>
<path fill-rule="evenodd" clip-rule="evenodd" d="M418.292 409.526L415.959 408.801L415.155 411.393L417.487 412.117L418.292 409.526ZM415.911 408.695L415.054 411.452L417.536 412.223L418.392 409.466L415.911 408.695Z" fill="#6B7280"/>
<path d="M416.596 406.49L419.077 407.26L418.392 409.466L415.911 408.695L416.596 406.49Z" fill="#6B7280"/>
<path fill-rule="evenodd" clip-rule="evenodd" d="M418.982 407.303L416.65 406.579L416.006 408.652L418.338 409.377L418.982 407.303ZM416.596 406.49L415.911 408.695L418.392 409.466L419.077 407.26L416.596 406.49Z" fill="#6B7280"/>
<path d="M417.536 412.223L419.741 412.908L419.056 415.113L416.851 414.428L417.536 412.223Z" fill="#6B7280"/>
<path fill-rule="evenodd" clip-rule="evenodd" d="M419.655 412.954L417.581 412.31L416.938 414.383L419.011 415.027L419.655 412.954ZM417.536 412.223L416.851 414.428L419.056 415.113L419.741 412.908L417.536 412.223Z" fill="#6B7280"/>
<path d="M419.741 412.908L422.498 413.764L421.813 415.97L419.056 415.113L419.741 412.908Z" fill="#6B7280"/>
<path fill-rule="evenodd" clip-rule="evenodd" d="M422.395 413.805L419.803 413L419.16 415.073L421.751 415.878L422.395 413.805ZM419.741 412.908L419.056 415.113L421.813 415.97L422.498 413.764L419.741 412.908Z" fill="#6B7280"/>
<path d="M422.498 413.764L424.704 414.449L424.019 416.655L421.813 415.97L422.498 413.764Z" fill="#6B7280"/>
<path fill-rule="evenodd" clip-rule="evenodd" d="M424.617 414.495L422.544 413.851L421.9 415.924L423.973 416.568L424.617 414.495ZM422.498 413.764L421.813 415.97L424.019 416.655L424.704 414.449L422.498 413.764Z" fill="#6B7280"/>
<path d="M421.813 415.97L424.019 416.655L423.248 419.136L421.043 418.451L421.813 415.97Z" fill="#6B7280"/>
<path fill-rule="evenodd" clip-rule="evenodd" d="M423.93 416.709L421.856 416.065L421.132 418.397L423.205 419.041L423.93 416.709ZM421.813 415.97L421.043 418.451L423.248 419.136L424.019 416.655L421.813 415.97Z" fill="#6B7280"/>
<path d="M421.043 418.451L423.248 419.136L422.478 421.617L420.272 420.932L421.043 418.451Z" fill="#6B7280"/>
<path fill-rule="evenodd" clip-rule="evenodd" d="M423.159 419.19L421.086 418.546L420.361 420.878L422.435 421.522L423.159 419.19ZM421.043 418.451L420.272 420.932L422.478 421.617L423.248 419.136L421.043 418.451Z" fill="#6B7280"/>
<path d="M417.515 420.076L420.272 420.932L419.587 423.138L416.83 422.282L417.515 420.076Z" fill="#6B7280"/>
<path fill-rule="evenodd" clip-rule="evenodd" d="M420.169 420.973L417.577 420.168L416.933 422.241L419.525 423.046L420.169 420.973ZM417.515 420.076L416.83 422.282L419.587 423.138L420.272 420.932L417.515 420.076Z" fill="#6B7280"/>
<path d="M414.625 421.597L416.83 422.282L416.06 424.763L413.854 424.078L414.625 421.597Z" fill="#6B7280"/>
<path fill-rule="evenodd" clip-rule="evenodd" d="M416.741 422.336L414.668 421.692L413.943 424.024L416.017 424.668L416.741 422.336ZM414.625 421.597L413.854 424.078L416.06 424.763L416.83 422.282L414.625 421.597Z" fill="#6B7280"/>
<path d="M414.114 405.719L416.596 406.49L415.911 408.695L413.429 407.925L414.114 405.719Z" fill="#6B7280"/>
<path fill-rule="evenodd" clip-rule="evenodd" d="M416.501 406.533L414.168 405.808L413.524 407.882L415.857 408.606L416.501 406.533ZM414.114 405.719L413.429 407.925L415.911 408.695L416.596 406.49L414.114 405.719Z" fill="#6B7280"/>
<path d="M411.909 405.034L414.114 405.719L413.429 407.925L411.224 407.24L411.909 405.034Z" fill="#6B7280"/>
<path fill-rule="evenodd" clip-rule="evenodd" d="M414.028 405.765L411.954 405.121L411.311 407.194L413.384 407.838L414.028 405.765ZM411.909 405.034L411.224 407.24L413.429 407.925L414.114 405.719L411.909 405.034Z" fill="#6B7280"/>
<path d="M409.427 404.264L411.909 405.034L411.224 407.24L408.743 406.469L409.427 404.264Z" fill="#6B7280"/>
<path fill-rule="evenodd" clip-rule="evenodd" d="M411.814 405.077L409.481 404.353L408.837 406.426L411.17 407.15L411.814 405.077ZM409.427 404.264L408.743 406.469L411.224 407.24L411.909 405.034L409.427 404.264Z" fill="#6B7280"/>
<path d="M406.946 403.493L409.428 404.264L408.743 406.469L406.261 405.699L406.946 403.493Z" fill="#6B7280"/>
<path fill-rule="evenodd" clip-rule="evenodd" d="M409.333 404.307L407 403.582L406.356 405.655L408.689 406.38L409.333 404.307ZM406.946 403.493L406.261 405.699L408.743 406.469L409.428 404.264L406.946 403.493Z" fill="#6B7280"/>
<path d="M398.727 429.96L401.208 430.731L400.437 433.212L397.956 432.441L398.727 429.96Z" fill="#6B7280"/>
<path fill-rule="evenodd" clip-rule="evenodd" d="M401.11 430.782L398.778 430.058L398.053 432.39L400.386 433.114L401.11 430.782ZM398.727 429.96L397.956 432.441L400.437 433.212L401.208 430.731L398.727 429.96Z" fill="#6B7280"/>
<path d="M397.956 432.441L400.437 433.212L399.752 435.417L397.271 434.647L397.956 432.441Z" fill="#6B7280"/>
<path fill-rule="evenodd" clip-rule="evenodd" d="M400.342 433.255L398.01 432.531L397.366 434.604L399.698 435.328L400.342 433.255ZM397.956 432.441L397.271 434.647L399.752 435.417L400.437 433.212L397.956 432.441Z" fill="#6B7280"/>
<path d="M397.271 434.647L399.752 435.417L398.896 438.174L396.415 437.404L397.271 434.647Z" fill="#6B7280"/>
<path fill-rule="evenodd" clip-rule="evenodd" d="M399.652 435.477L397.32 434.753L396.515 437.344L398.847 438.069L399.652 435.477ZM397.271 434.647L396.415 437.404L398.896 438.174L399.752 435.417L397.271 434.647Z" fill="#6B7280"/>
<path d="M396.415 437.404L398.896 438.174L398.211 440.38L395.73 439.609L396.415 437.404Z" fill="#6B7280"/>
<path fill-rule="evenodd" clip-rule="evenodd" d="M398.801 438.217L396.469 437.493L395.825 439.566L398.157 440.291L398.801 438.217ZM396.415 437.404L395.73 439.609L398.211 440.38L398.896 438.174L396.415 437.404Z" fill="#6B7280"/>
<path d="M399.752 435.417L402.233 436.188L401.377 438.945L398.896 438.174L399.752 435.417Z" fill="#6B7280"/>
<path fill-rule="evenodd" clip-rule="evenodd" d="M402.133 436.248L399.801 435.523L398.996 438.115L401.328 438.839L402.133 436.248ZM399.752 435.417L398.896 438.174L401.377 438.945L402.233 436.188L399.752 435.417Z" fill="#6B7280"/>
<path d="M398.896 438.174L401.377 438.945L400.692 441.151L398.211 440.38L398.896 438.174Z" fill="#6B7280"/>
<path fill-rule="evenodd" clip-rule="evenodd" d="M401.282 438.988L398.95 438.264L398.306 440.337L400.638 441.061L401.282 438.988ZM398.896 438.174L398.211 440.38L400.692 441.151L401.377 438.945L398.896 438.174Z" fill="#6B7280"/>
<path d="M401.377 438.945L403.583 439.63L402.898 441.836L400.692 441.151L401.377 438.945Z" fill="#6B7280"/>
<path fill-rule="evenodd" clip-rule="evenodd" d="M403.496 439.676L401.423 439.032L400.779 441.105L402.852 441.749L403.496 439.676ZM401.377 438.945L400.692 441.151L402.898 441.836L403.583 439.63L401.377 438.945Z" fill="#6B7280"/>
<path d="M394.79 433.876L397.271 434.647L396.415 437.404L393.933 436.633L394.79 433.876Z" fill="#6B7280"/>
<path fill-rule="evenodd" clip-rule="evenodd" d="M397.171 434.706L394.838 433.982L394.034 436.574L396.366 437.298L397.171 434.706ZM394.79 433.876L393.933 436.633L396.415 437.404L397.271 434.647L394.79 433.876Z" fill="#6B7280"/>
<path d="M393.933 436.633L396.415 437.404L395.73 439.609L393.248 438.839L393.933 436.633Z" fill="#6B7280"/>
<path fill-rule="evenodd" clip-rule="evenodd" d="M396.32 437.447L393.987 436.722L393.343 438.796L395.676 439.52L396.32 437.447ZM393.933 436.633L393.248 438.839L395.73 439.609L396.415 437.404L393.933 436.633Z" fill="#6B7280"/>
<path d="M391.728 435.948L393.933 436.633L393.248 438.839L391.043 438.154L391.728 435.948Z" fill="#6B7280"/>
<path fill-rule="evenodd" clip-rule="evenodd" d="M393.847 436.679L391.773 436.035L391.13 438.108L393.203 438.752L393.847 436.679ZM391.728 435.948L391.043 438.154L393.248 438.839L393.933 436.633L391.728 435.948Z" fill="#6B7280"/>
<path d="M404.465 402.722L406.946 403.493L406.261 405.699L403.78 404.928L404.465 402.722Z" fill="#6B7280"/>
<path fill-rule="evenodd" clip-rule="evenodd" d="M406.851 403.536L404.519 402.812L403.875 404.885L406.207 405.609L406.851 403.536ZM404.465 402.722L403.78 404.928L406.261 405.699L406.946 403.493L404.465 402.722Z" fill="#6B7280"/>
<path d="M394.3 410.146L396.781 410.916L396.011 413.397L393.529 412.627L394.3 410.146Z" fill="#6B7280"/>
<path fill-rule="evenodd" clip-rule="evenodd" d="M396.684 410.968L394.351 410.243L393.627 412.576L395.959 413.3L396.684 410.968ZM394.3 410.146L393.529 412.627L396.011 413.397L396.781 410.916L394.3 410.146Z" fill="#6B7280"/>
<path d="M399.263 411.687L401.468 412.372L400.698 414.853L398.492 414.168L399.263 411.687Z" fill="#6B7280"/>
<path fill-rule="evenodd" clip-rule="evenodd" d="M401.379 412.426L399.306 411.782L398.581 414.114L400.655 414.758L401.379 412.426ZM399.263 411.687L398.492 414.168L400.698 414.853L401.468 412.372L399.263 411.687Z" fill="#6B7280"/>
<path d="M395.071 407.664L397.552 408.435L396.781 410.916L394.3 410.146L395.071 407.664Z" fill="#6B7280"/>
<path fill-rule="evenodd" clip-rule="evenodd" d="M397.454 408.486L395.122 407.762L394.398 410.094L396.73 410.819L397.454 408.486ZM395.071 407.664L394.3 410.146L396.781 410.916L397.552 408.435L395.071 407.664Z" fill="#6B7280"/>
<path d="M400.033 409.206L402.239 409.891L401.468 412.372L399.263 411.687L400.033 409.206Z" fill="#6B7280"/>
<path fill-rule="evenodd" clip-rule="evenodd" d="M402.15 409.944L400.076 409.301L399.352 411.633L401.425 412.277L402.15 409.944ZM400.033 409.206L399.263 411.687L401.468 412.372L402.239 409.891L400.033 409.206Z" fill="#6B7280"/>
<path d="M393.529 412.627L396.011 413.397L395.326 415.603L392.844 414.832L393.529 412.627Z" fill="#6B7280"/>
<path fill-rule="evenodd" clip-rule="evenodd" d="M395.916 413.441L393.583 412.716L392.939 414.789L395.272 415.514L395.916 413.441ZM393.529 412.627L392.844 414.832L395.326 415.603L396.011 413.397L393.529 412.627Z" fill="#6B7280"/>
<path d="M392.844 414.832L395.326 415.603L394.555 418.084L392.074 417.314L392.844 414.832Z" fill="#6B7280"/>
<path fill-rule="evenodd" clip-rule="evenodd" d="M395.228 415.654L392.896 414.93L392.171 417.262L394.504 417.987L395.228 415.654ZM392.844 414.832L392.074 417.314L394.555 418.084L395.326 415.603L392.844 414.832Z" fill="#6B7280"/>
<path d="M397.807 416.374L400.013 417.059L399.242 419.54L397.036 418.855L397.807 416.374Z" fill="#6B7280"/>
<path fill-rule="evenodd" clip-rule="evenodd" d="M399.923 417.113L397.85 416.469L397.126 418.801L399.199 419.445L399.923 417.113ZM397.807 416.374L397.036 418.855L399.242 419.54L400.013 417.059L397.807 416.374Z" fill="#6B7280"/>
<path d="M390.639 414.147L392.844 414.832L392.074 417.314L389.868 416.629L390.639 414.147Z" fill="#6B7280"/>
<path fill-rule="evenodd" clip-rule="evenodd" d="M392.755 414.886L390.682 414.242L389.958 416.575L392.031 417.219L392.755 414.886ZM390.639 414.147L389.868 416.629L392.074 417.314L392.844 414.832L390.639 414.147Z" fill="#6B7280"/>
<path d="M388.567 411.086L391.324 411.942L390.639 414.147L387.882 413.291L388.567 411.086Z" fill="#6B7280"/>
<path fill-rule="evenodd" clip-rule="evenodd" d="M391.221 411.982L388.629 411.178L387.985 413.251L390.577 414.056L391.221 411.982ZM388.567 411.086L387.882 413.291L390.639 414.147L391.324 411.942L388.567 411.086Z" fill="#6B7280"/>
<path d="M387.132 407.919L389.337 408.604L388.567 411.086L386.361 410.401L387.132 407.919Z" fill="#6B7280"/>
<path fill-rule="evenodd" clip-rule="evenodd" d="M389.248 408.658L387.175 408.014L386.451 410.347L388.524 410.991L389.248 408.658ZM387.132 407.919L386.361 410.401L388.567 411.086L389.337 408.604L387.132 407.919Z" fill="#6B7280"/>
<path d="M387.903 405.438L390.108 406.123L389.338 408.604L387.132 407.919L387.903 405.438Z" fill="#6B7280"/>
<path fill-rule="evenodd" clip-rule="evenodd" d="M390.019 406.177L387.946 405.533L387.221 407.866L389.294 408.509L390.019 406.177ZM387.903 405.438L387.132 407.919L389.338 408.604L390.108 406.123L387.903 405.438Z" fill="#6B7280"/>
<path d="M392.074 417.314L394.555 418.084L393.785 420.566L391.303 419.795L392.074 417.314Z" fill="#6B7280"/>
<path fill-rule="evenodd" clip-rule="evenodd" d="M394.458 418.136L392.125 417.411L391.401 419.744L393.733 420.468L394.458 418.136ZM392.074 417.314L391.303 419.795L393.785 420.566L394.555 418.084L392.074 417.314Z" fill="#6B7280"/>
<path d="M393.785 420.566L396.266 421.336L395.495 423.818L393.014 423.047L393.785 420.566Z" fill="#6B7280"/>
<path fill-rule="evenodd" clip-rule="evenodd" d="M396.168 421.388L393.836 420.663L393.111 422.996L395.444 423.72L396.168 421.388ZM393.785 420.566L393.014 423.047L395.495 423.818L396.266 421.336L393.785 420.566Z" fill="#6B7280"/>
<path d="M395.495 423.818L397.701 424.502L397.016 426.708L394.81 426.023L395.495 423.818Z" fill="#6B7280"/>
<path fill-rule="evenodd" clip-rule="evenodd" d="M397.614 424.548L395.541 423.904L394.897 425.977L396.97 426.621L397.614 424.548ZM395.495 423.818L394.81 426.023L397.016 426.708L397.701 424.502L395.495 423.818Z" fill="#6B7280"/>
<path d="M397.016 426.708L399.497 427.479L398.727 429.96L396.245 429.189L397.016 426.708Z" fill="#6B7280"/>
<path fill-rule="evenodd" clip-rule="evenodd" d="M399.4 427.53L397.067 426.806L396.343 429.138L398.675 429.862L399.4 427.53ZM397.016 426.708L396.245 429.189L398.727 429.96L399.497 427.479L397.016 426.708Z" fill="#6B7280"/>
<path d="M402.259 402.037L404.465 402.722L403.78 404.928L401.574 404.243L402.259 402.037Z" fill="#6B7280"/>
<path fill-rule="evenodd" clip-rule="evenodd" d="M404.378 402.768L402.305 402.124L401.661 404.197L403.734 404.841L404.378 402.768ZM402.259 402.037L401.574 404.243L403.78 404.928L404.465 402.722L402.259 402.037Z" fill="#6B7280"/>
<path d="M399.778 401.267L402.259 402.037L401.574 404.243L399.093 403.472L399.778 401.267Z" fill="#6B7280"/>
<path fill-rule="evenodd" clip-rule="evenodd" d="M402.164 402.08L399.832 401.356L399.188 403.429L401.521 404.154L402.164 402.08ZM399.778 401.267L399.093 403.472L401.574 404.243L402.259 402.037L399.778 401.267Z" fill="#6B7280"/>
<path d="M395.756 405.459L398.237 406.229L397.552 408.435L395.071 407.664L395.756 405.459Z" fill="#6B7280"/>
<path fill-rule="evenodd" clip-rule="evenodd" d="M398.142 406.272L395.81 405.548L395.166 407.621L397.498 408.346L398.142 406.272ZM395.756 405.459L395.071 407.664L397.552 408.435L398.237 406.229L395.756 405.459Z" fill="#6B7280"/>
<path d="M400.718 407L402.924 407.685L402.239 409.891L400.033 409.206L400.718 407Z" fill="#6B7280"/>
<path fill-rule="evenodd" clip-rule="evenodd" d="M402.837 407.731L400.764 407.087L400.12 409.16L402.193 409.804L402.837 407.731ZM400.718 407L400.033 409.206L402.239 409.891L402.924 407.685L400.718 407Z" fill="#6B7280"/>
<path d="M396.612 402.702L399.093 403.472L398.237 406.229L395.756 405.459L396.612 402.702Z" fill="#6B7280"/>
<path fill-rule="evenodd" clip-rule="evenodd" d="M398.993 403.532L396.661 402.808L395.856 405.399L398.188 406.124L398.993 403.532ZM396.612 402.702L395.756 405.459L398.237 406.229L399.093 403.472L396.612 402.702Z" fill="#6B7280"/>
<path d="M397.297 400.496L399.778 401.267L399.093 403.472L396.612 402.702L397.297 400.496Z" fill="#6B7280"/>
<path fill-rule="evenodd" clip-rule="evenodd" d="M399.683 401.31L397.351 400.585L396.707 402.659L399.039 403.383L399.683 401.31ZM397.297 400.496L396.612 402.702L399.093 403.472L399.778 401.267L397.297 400.496Z" fill="#6B7280"/>
<path d="M393.55 404.774L395.756 405.459L395.071 407.664L392.865 406.979L393.55 404.774Z" fill="#6B7280"/>
<path fill-rule="evenodd" clip-rule="evenodd" d="M395.669 405.504L393.596 404.86L392.952 406.934L395.025 407.578L395.669 405.504ZM393.55 404.774L392.865 406.979L395.071 407.664L395.756 405.459L393.55 404.774Z" fill="#6B7280"/>
<path d="M388.588 403.233L390.793 403.918L390.108 406.123L387.903 405.438L388.588 403.233Z" fill="#6B7280"/>
<path fill-rule="evenodd" clip-rule="evenodd" d="M390.706 403.963L388.633 403.319L387.989 405.393L390.063 406.036L390.706 403.963ZM388.588 403.233L387.903 405.438L390.108 406.123L390.793 403.918L388.588 403.233Z" fill="#6B7280"/>
<path d="M390.793 403.918L393.55 404.774L392.865 406.979L390.108 406.123L390.793 403.918Z" fill="#6B7280"/>
<path fill-rule="evenodd" clip-rule="evenodd" d="M393.447 404.814L390.855 404.009L390.211 406.083L392.803 406.887L393.447 404.814ZM390.793 403.918L390.108 406.123L392.865 406.979L393.55 404.774L390.793 403.918Z" fill="#6B7280"/>
<path d="M412.828 418.62L415.31 419.391L414.625 421.597L412.143 420.826L412.828 418.62Z" fill="#6B7280"/>
<path fill-rule="evenodd" clip-rule="evenodd" d="M415.215 419.434L412.882 418.71L412.238 420.783L414.571 421.507L415.215 419.434ZM412.828 418.62L412.143 420.826L414.625 421.597L415.31 419.391L412.828 418.62Z" fill="#6B7280"/>
<path d="M412.143 420.826L414.625 421.597L413.854 424.078L411.373 423.307L412.143 420.826Z" fill="#6B7280"/>
<path fill-rule="evenodd" clip-rule="evenodd" d="M414.527 421.648L412.195 420.924L411.47 423.256L413.803 423.98L414.527 421.648ZM412.143 420.826L411.373 423.307L413.854 424.078L414.625 421.597L412.143 420.826Z" fill="#6B7280"/>
<path d="M411.373 423.307L413.854 424.078L413.083 426.559L410.602 425.789L411.373 423.307Z" fill="#6B7280"/>
<path fill-rule="evenodd" clip-rule="evenodd" d="M413.756 424.129L411.424 423.405L410.7 425.737L413.032 426.462L413.756 424.129ZM411.373 423.307L410.602 425.789L413.083 426.559L413.854 424.078L411.373 423.307Z" fill="#6B7280"/>
<path d="M408.121 425.018L410.602 425.789L409.832 428.27L407.35 427.499L408.121 425.018Z" fill="#6B7280"/>
<path fill-rule="evenodd" clip-rule="evenodd" d="M410.505 425.84L408.172 425.116L407.448 427.448L409.78 428.172L410.505 425.84ZM408.121 425.018L407.35 427.499L409.832 428.27L410.602 425.789L408.121 425.018Z" fill="#6B7280"/>
<path d="M405.145 426.814L407.35 427.499L406.665 429.705L404.46 429.02L405.145 426.814Z" fill="#6B7280"/>
<path fill-rule="evenodd" clip-rule="evenodd" d="M407.264 427.545L405.19 426.901L404.546 428.974L406.62 429.618L407.264 427.545ZM405.145 426.814L404.46 429.02L406.665 429.705L407.35 427.499L405.145 426.814Z" fill="#6B7280"/>
<path d="M401.978 428.249L404.46 429.02L403.689 431.501L401.208 430.731L401.978 428.249Z" fill="#6B7280"/>
<path fill-rule="evenodd" clip-rule="evenodd" d="M404.362 429.071L402.03 428.347L401.305 430.679L403.638 431.404L404.362 429.071ZM401.978 428.249L401.208 430.731L403.689 431.501L404.46 429.02L401.978 428.249Z" fill="#6B7280"/>
<path fill-rule="evenodd" clip-rule="evenodd" d="M164.806 376.618C164.932 376.57 165.058 376.523 165.186 376.478C174.672 373.096 185.101 378.037 188.478 387.512C188.523 387.64 188.567 387.767 188.61 387.895L503.909 275.515C503.861 275.389 503.814 275.263 503.768 275.135C500.391 265.66 505.344 255.237 514.83 251.856C514.958 251.811 515.085 251.767 515.213 251.724L470.637 126.66C470.512 126.708 470.385 126.755 470.257 126.8C460.771 130.181 450.343 125.241 446.965 115.765C446.92 115.638 446.876 115.51 446.834 115.383L131.535 227.763C131.56 227.83 131.586 227.898 131.611 227.967C131.633 228.025 131.654 228.084 131.675 228.142C135.052 237.618 130.1 248.041 120.613 251.422C120.551 251.444 120.489 251.466 120.427 251.487C120.361 251.51 120.296 251.532 120.23 251.554L164.806 376.618Z" fill="white"/>
<mask id="path-127-inside-2_20_47" fill="white">
<path fill-rule="evenodd" clip-rule="evenodd" d="M191.769 379.407L496.093 270.939C493.031 262.206 497.923 252.513 507.051 249.259C507.143 249.227 507.234 249.195 507.326 249.164L466.148 133.632C466.057 133.666 465.966 133.699 465.875 133.732C456.718 136.995 446.766 132.545 443.646 123.791C443.552 123.528 443.466 123.264 443.386 123L139.023 231.482C139.128 231.737 139.228 231.996 139.322 232.259C142.442 241.013 137.548 250.755 128.392 254.018C128.237 254.074 128.082 254.127 127.927 254.177L169.108 369.717C169.26 369.658 169.414 369.601 169.569 369.546C178.697 366.293 188.617 370.706 191.769 379.407Z"/>
</mask>
<path fill-rule="evenodd" clip-rule="evenodd" d="M191.769 379.407L496.093 270.939C493.031 262.206 497.923 252.513 507.051 249.259C507.143 249.227 507.234 249.195 507.326 249.164L466.148 133.632C466.057 133.666 465.966 133.699 465.875 133.732C456.718 136.995 446.766 132.545 443.646 123.791C443.552 123.528 443.466 123.264 443.386 123L139.023 231.482C139.128 231.737 139.228 231.996 139.322 232.259C142.442 241.013 137.548 250.755 128.392 254.018C128.237 254.074 128.082 254.127 127.927 254.177L169.108 369.717C169.26 369.658 169.414 369.601 169.569 369.546C178.697 366.293 188.617 370.706 191.769 379.407Z" fill="white"/>
<path d="M191.769 379.407L188.349 380.646L189.581 384.048L192.99 382.833L191.769 379.407ZM496.093 270.939L497.314 274.365L500.723 273.15L499.526 269.735L496.093 270.939ZM507.326 249.164L508.494 252.609L511.992 251.422L510.752 247.943L507.326 249.164ZM466.148 133.632L469.574 132.411L468.334 128.931L464.874 130.225L466.148 133.632ZM443.386 123L446.87 121.955L445.77 118.289L442.165 119.574L443.386 123ZM139.023 231.482L137.801 228.056L134.196 229.341L135.663 232.876L139.023 231.482ZM127.927 254.177L126.796 250.72L123.247 251.881L124.5 255.399L127.927 254.177ZM169.108 369.717L165.682 370.939L166.935 374.456L170.418 373.11L169.108 369.717ZM192.99 382.833L497.314 274.365L494.872 267.513L190.548 375.981L192.99 382.833ZM499.526 269.735C497.176 263.033 500.884 255.319 508.273 252.686L505.83 245.833C494.961 249.707 488.887 261.379 492.661 272.142L499.526 269.735ZM508.273 252.686C508.346 252.659 508.42 252.634 508.494 252.609L506.158 245.719C506.049 245.756 505.939 245.794 505.83 245.833L508.273 252.686ZM510.752 247.943L469.574 132.411L462.721 134.853L503.9 250.385L510.752 247.943ZM464.874 130.225C464.801 130.252 464.727 130.279 464.653 130.305L467.096 137.158C467.205 137.119 467.313 137.079 467.422 137.039L464.874 130.225ZM464.653 130.305C457.242 132.947 449.466 129.288 447.072 122.57L440.22 125.012C444.065 135.802 456.194 141.043 467.096 137.158L464.653 130.305ZM447.072 122.57C446.999 122.365 446.932 122.16 446.87 121.955L439.902 124.045C439.999 124.369 440.105 124.691 440.22 125.012L447.072 122.57ZM442.165 119.574L137.801 228.056L140.244 234.908L444.607 126.426L442.165 119.574ZM135.663 232.876C135.745 233.074 135.823 233.276 135.896 233.48L142.748 231.038C142.634 230.717 142.512 230.4 142.382 230.088L135.663 232.876ZM135.896 233.48C138.29 240.198 134.582 247.951 127.171 250.592L129.613 257.445C140.515 253.559 146.594 241.828 142.748 231.038L135.896 233.48ZM127.171 250.592C127.046 250.637 126.921 250.68 126.796 250.72L129.057 257.635C129.243 257.574 129.428 257.51 129.613 257.445L127.171 250.592ZM124.5 255.399L165.682 370.939L172.534 368.496L131.353 252.956L124.5 255.399ZM170.418 373.11C170.541 373.063 170.665 373.017 170.79 372.972L168.348 366.12C168.163 366.186 167.979 366.254 167.797 366.324L170.418 373.11ZM170.79 372.972C178.178 370.339 185.93 373.968 188.349 380.646L195.189 378.168C191.304 367.444 179.217 362.246 168.348 366.12L170.79 372.972Z" fill="#6B7280" mask="url(#path-127-inside-2_20_47)"/>
<rect x="452.554" y="285.318" width="0.808696" height="155.429" transform="rotate(160.383 452.554 285.318)" stroke="#6B7280" stroke-width="0.808696" stroke-dasharray="11.46 11.46"/>
<path d="M178.225 271.265L175.294 272.31L172.363 273.354L171.319 270.424L170.274 267.493L169.23 264.563L172.16 263.518L175.091 262.474L178.022 261.429L179.066 264.36L180.111 267.29L181.155 270.221L178.225 271.265ZM179.269 274.196L182.2 273.151L181.155 270.221L184.086 269.176L183.041 266.246L181.997 263.315L180.952 260.385L178.022 261.429L176.977 258.499L174.047 259.543L171.116 260.588L168.185 261.632L167.141 258.702L170.071 257.657L173.002 256.613L175.933 255.568L176.977 258.499L179.908 257.454L178.863 254.524L175.933 255.568L174.888 252.638L171.957 253.682L169.027 254.727L166.096 255.771L163.166 256.816L164.21 259.746L165.255 262.677L166.299 265.607L167.344 268.538L168.388 271.468L169.433 274.399L170.477 277.329L173.408 276.285L176.339 275.24L179.269 274.196ZM200.319 266.693L203.249 265.649L202.205 262.718L201.16 259.788L200.116 256.857L199.071 253.927L198.027 250.996L196.982 248.065L194.052 249.11L195.096 252.041L192.166 253.085L189.235 254.13L186.305 255.174L185.26 252.244L182.33 253.288L183.374 256.219L184.419 259.149L185.463 262.08L186.508 265.01L187.552 267.941L188.597 270.871L191.527 269.827L190.483 266.896L189.438 263.966L188.394 261.035L187.349 258.105L190.28 257.06L193.21 256.016L196.141 254.971L197.185 257.902L198.23 260.832L199.274 263.763L200.319 266.693ZM194.052 249.11L193.007 246.179L190.077 247.224L187.146 248.268L184.216 249.313L185.26 252.244L188.191 251.199L191.121 250.154L194.052 249.11ZM221.369 259.191L220.324 256.26L214.057 238.677L211.127 239.721L212.171 242.652L217.394 257.304L214.463 258.349L208.196 240.766L205.265 241.81L211.533 259.394L208.602 260.438L207.558 257.507L206.513 254.577L205.468 251.646L203.379 245.785L202.335 242.855L199.404 243.899L200.449 246.83L201.493 249.76L202.538 252.691L203.582 255.621L204.627 258.552L205.671 261.483L206.716 264.413L221.369 259.191ZM239.618 232.869L251.34 228.691L250.296 225.761L247.365 226.805L244.435 227.85L241.504 228.894L238.573 229.939L235.643 230.983L236.687 233.914L237.732 236.844L238.776 239.775L239.821 242.705L240.866 245.636L241.91 248.566L242.955 251.497L245.885 250.452L248.816 249.408L251.746 248.363L254.677 247.319L253.632 244.388L256.563 243.344L255.518 240.413L254.474 237.483L253.429 234.552L250.499 235.597L249.454 232.666L246.524 233.711L243.593 234.755L240.662 235.8L239.618 232.869ZM250.702 245.433L247.771 246.477L244.841 247.522L243.796 244.591L242.752 241.661L241.707 238.73L244.638 237.686L247.568 236.641L250.499 235.597L251.543 238.527L252.588 241.458L253.632 244.388L250.702 245.433ZM261.712 228.297L262.757 231.228L265.687 230.183L264.643 227.252L261.712 228.297ZM265.484 220.347L266.529 223.277L263.598 224.322L264.643 227.252L267.573 226.208L270.707 235L271.751 237.93L272.796 240.861L275.726 239.816L274.682 236.886L273.637 233.955L272.593 231.025L271.548 228.094L270.504 225.163L269.459 222.233L268.415 219.302L265.484 220.347ZM260.871 235.203L263.801 234.158L262.757 231.228L259.826 232.272L256.693 223.48L253.762 224.525L254.807 227.455L255.851 230.386L256.896 233.317L257.94 236.247L258.985 239.178L260.029 242.108L261.074 245.039L264.004 243.994L262.96 241.064L260.871 235.203ZM278.149 235.65L279.193 238.581L282.124 237.536L281.079 234.605L278.149 235.65ZM280.035 231.675L281.079 234.605L284.01 233.561L282.965 230.63L281.921 227.7L280.876 224.769L278.787 218.908L281.718 217.864L284.648 216.819L290.915 234.402L293.846 233.358L286.534 212.844L283.604 213.889L280.673 214.933L274.812 217.022L275.857 219.953L276.901 222.883L277.946 225.814L278.99 228.744L280.035 231.675ZM307.99 225.014L305.059 226.058L302.129 227.103L299.198 228.147L298.154 225.217L297.109 222.286L296.065 219.356L298.995 218.311L301.926 217.267L300.881 214.336L297.951 215.381L295.02 216.425L293.976 213.495L296.906 212.45L299.837 211.406L302.767 210.361L305.698 209.317L304.653 206.386L301.723 207.431L298.792 208.475L295.862 209.52L292.931 210.564L290.001 211.609L291.045 214.539L292.09 217.47L293.134 220.4L294.179 223.331L295.223 226.261L296.268 229.192L297.312 232.122L300.243 231.078L303.173 230.033L306.104 228.989L309.034 227.944L311.965 226.9L310.92 223.969L307.99 225.014ZM321.293 223.575L324.223 222.531L323.179 219.6L322.134 216.67L321.09 213.739L320.045 210.809L319.001 207.878L317.956 204.948L320.887 203.903L323.817 202.859L322.773 199.928L319.842 200.972L316.912 202.017L313.981 203.062L311.051 204.106L308.12 205.151L309.165 208.081L312.095 207.037L315.026 205.992L316.07 208.923L317.115 211.853L318.159 214.784L319.204 217.714L320.248 220.645L321.293 223.575ZM359.417 206.684L356.487 207.728L353.556 208.773L352.512 205.842L351.467 202.912L350.423 199.981L353.353 198.937L356.284 197.892L359.214 196.848L360.259 199.778L361.303 202.709L362.348 205.639L359.417 206.684ZM360.462 209.614L363.392 208.57L362.348 205.639L365.278 204.595L364.234 201.664L363.189 198.734L362.145 195.803L359.214 196.848L358.17 193.917L355.239 194.962L352.309 196.006L349.378 197.051L348.334 194.12L351.264 193.076L354.195 192.031L357.125 190.987L358.17 193.917L361.1 192.873L360.056 189.942L357.125 190.987L356.081 188.056L353.15 189.101L350.22 190.145L347.289 191.19L344.359 192.234L345.403 195.165L346.448 198.095L347.492 201.026L348.537 203.956L349.581 206.887L350.626 209.817L351.67 212.748L354.601 211.703L357.531 210.659L360.462 209.614ZM377.536 200.226L374.606 201.27L371.675 202.315L372.72 205.245L375.65 204.201L378.581 203.156L381.512 202.112L380.467 199.181L377.536 200.226ZM380.467 199.181L383.398 198.137L382.353 195.206L381.309 192.276L380.264 189.345L379.219 186.415L378.175 183.484L375.244 184.529L376.289 187.459L377.333 190.39L378.378 193.32L379.422 196.251L380.467 199.181ZM371.675 202.315L370.631 199.384L369.586 196.454L368.542 193.523L367.497 190.593L366.453 187.662L363.522 188.707L364.567 191.637L365.611 194.568L366.656 197.498L367.7 200.429L368.745 203.359L371.675 202.315ZM375.244 184.529L374.2 181.598L371.269 182.643L368.339 183.687L365.408 184.732L366.453 187.662L369.383 186.618L372.314 185.573L375.244 184.529ZM181.785 290.521L182.829 293.451L185.76 292.407L184.715 289.476L181.785 290.521ZM189.735 294.293L193.913 306.015L196.844 304.971L192.666 293.248L189.735 294.293ZM178.013 298.471L182.191 310.193L185.121 309.149L180.943 297.427L178.013 298.471ZM179.899 294.496L180.943 297.427L189.735 294.293L188.69 291.362L179.899 294.496ZM189.096 311.035L190.141 313.965L193.072 312.921L192.027 309.99L189.096 311.035ZM185.121 309.149L186.166 312.079L194.958 308.946L193.913 306.015L185.121 309.149ZM183.874 296.382L188.052 308.104L190.983 307.06L186.804 295.337L183.874 296.382ZM201.355 306.666L204.285 305.621L203.241 302.691L202.196 299.76L201.152 296.829L200.107 293.899L203.038 292.854L205.968 291.81L208.899 290.765L207.854 287.835L204.924 288.879L201.993 289.924L199.063 290.968L198.018 288.038L200.949 286.993L203.879 285.949L206.81 284.904L207.854 287.835L210.785 286.79L209.74 283.86L206.81 284.904L205.765 281.974L202.835 283.018L199.904 284.063L196.974 285.107L194.043 286.152L195.088 289.082L196.132 292.013L197.177 294.943L198.221 297.874L199.266 300.804L200.31 303.735L201.355 306.666ZM220.112 283.466L221.157 286.396L224.087 285.352L223.043 282.421L220.112 283.466ZM223.884 275.516L224.929 278.446L221.998 279.491L223.043 282.421L225.974 281.377L229.107 290.168L230.152 293.099L231.196 296.029L234.127 294.985L233.082 292.054L232.038 289.124L230.993 286.193L229.949 283.263L228.904 280.332L227.86 277.402L226.815 274.471L223.884 275.516ZM219.271 290.371L222.201 289.327L221.157 286.396L218.226 287.441L215.093 278.649L212.162 279.694L213.207 282.624L214.251 285.555L215.296 288.485L216.34 291.416L217.385 294.346L218.429 297.277L219.474 300.207L222.404 299.163L221.36 296.232L219.271 290.371ZM236.549 290.819L237.593 293.749L240.524 292.705L239.479 289.774L236.549 290.819ZM238.435 286.844L239.479 289.774L242.41 288.73L241.365 285.799L240.321 282.869L239.276 279.938L237.187 274.077L240.118 273.033L243.048 271.988L249.315 289.571L252.246 288.527L244.934 268.013L242.004 269.058L239.073 270.102L233.212 272.191L234.257 275.122L235.301 278.052L236.346 280.983L237.39 283.913L238.435 286.844ZM267.435 283.113L270.365 282.069L269.321 279.138L268.276 276.208L267.232 273.277L266.187 270.346L265.143 267.416L264.098 264.485L261.168 265.53L262.212 268.46L259.282 269.505L256.351 270.549L253.42 271.594L252.376 268.663L249.445 269.708L250.49 272.638L251.534 275.569L252.579 278.5L253.623 281.43L254.668 284.361L255.712 287.291L258.643 286.247L257.598 283.316L256.554 280.386L255.509 277.455L254.465 274.524L257.395 273.48L260.326 272.435L263.257 271.391L264.301 274.321L265.346 277.252L266.39 280.183L267.435 283.113ZM261.168 265.53L260.123 262.599L257.192 263.644L254.262 264.688L251.331 265.733L252.376 268.663L255.306 267.619L258.237 266.574L261.168 265.53ZM285.554 276.655L288.484 275.61L287.44 272.68L286.395 269.749L285.351 266.819L284.306 263.888L283.262 260.958L282.217 258.027L281.173 255.097L278.242 256.141L279.287 259.072L280.331 262.002L277.401 263.047L274.47 264.091L271.54 265.136L270.495 262.205L269.451 259.275L266.52 260.319L267.565 263.25L268.609 266.18L269.654 269.111L270.698 272.041L271.743 274.972L272.787 277.902L273.832 280.833L276.762 279.788L275.718 276.858L274.673 273.927L273.629 270.997L272.584 268.066L275.515 267.022L278.445 265.977L281.376 264.933L282.42 267.863L283.465 270.794L284.509 273.724L285.554 276.655ZM298.451 255.544L301.381 254.5L300.337 251.569L297.406 252.614L298.451 255.544ZM299.698 268.311L296.768 269.355L293.837 270.4L294.882 273.33L297.812 272.286L300.743 271.241L303.673 270.197L302.629 267.266L299.698 268.311ZM302.629 267.266L305.559 266.222L304.515 263.291L301.584 264.336L302.629 267.266ZM293.837 270.4L292.793 267.469L291.748 264.539L290.703 261.608L289.659 258.678L288.614 255.747L285.684 256.792L286.728 259.722L287.773 262.653L288.817 265.583L289.862 268.514L290.907 271.444L293.837 270.4ZM297.406 252.614L296.362 249.683L293.431 250.728L290.5 251.772L287.57 252.817L288.614 255.747L291.545 254.703L294.476 253.658L297.406 252.614Z" fill="black"/>
<path d="M477.688 247.423L467.797 250.949L468.771 253.68L466.887 254.352L466.115 252.185C465.981 251.809 465.725 251.687 465.348 251.822L464.5 252.124L463.795 250.146L476.983 245.445L477.688 247.423ZM472.917 242.975L471.316 243.545L460.776 241.675L459.669 238.567L468.24 235.512L467.67 233.91L469.459 233.272L470.03 234.874L472.856 233.867L473.561 235.845L470.735 236.852L472.917 242.975ZM470.288 241.258L468.945 237.49L462.823 239.672L462.957 240.049L470.194 241.291L470.288 241.258ZM465.508 222.604C464.426 222.268 463.1 222.379 461.53 222.939C459.96 223.498 458.868 224.248 458.255 225.189C457.629 226.134 457.48 227.065 457.807 227.982C458.133 228.898 458.838 229.525 459.92 229.861C460.99 230.202 462.31 230.092 463.88 229.533C465.45 228.973 466.548 228.221 467.173 227.276C467.786 226.335 467.93 225.407 467.603 224.49C467.276 223.573 466.578 222.944 465.508 222.604ZM459.086 231.751C457.505 231.168 456.451 230.135 455.923 228.653C455.394 227.171 455.558 225.704 456.414 224.253C457.269 222.801 458.74 221.704 460.825 220.961C462.909 220.218 464.742 220.138 466.323 220.721C467.904 221.304 468.959 222.336 469.487 223.818C470.015 225.3 469.851 226.767 468.996 228.219C468.14 229.67 466.67 230.768 464.585 231.511C462.5 232.254 460.667 232.334 459.086 231.751ZM463.517 216.601L461.916 217.171L451.376 215.301L450.268 212.193L458.84 209.138L458.269 207.536L460.059 206.898L460.63 208.5L463.456 207.493L464.161 209.471L461.335 210.478L463.517 216.601ZM460.888 214.884L459.545 211.116L453.422 213.298L453.557 213.675L460.794 214.917L460.888 214.884ZM461.778 202.786L460.083 203.391L452.685 199.912C452.191 199.678 451.782 199.541 451.456 199.501C451.114 199.454 450.716 199.51 450.264 199.671C449.548 199.927 449.065 200.318 448.814 200.846C448.547 201.366 448.534 201.965 448.776 202.644C449.013 203.309 449.451 203.783 450.089 204.065C450.727 204.347 451.417 204.356 452.158 204.092L452.863 206.07C451.544 206.54 450.334 206.519 449.231 206.006C448.128 205.493 447.348 204.596 446.892 203.315C446.435 202.034 446.453 200.874 446.946 199.835C447.422 198.787 448.282 198.042 449.525 197.599C450.241 197.344 450.921 197.286 451.565 197.424C452.204 197.55 452.942 197.811 453.776 198.207L458.759 200.571L458.854 200.538L456.806 194.792L458.689 194.12L461.778 202.786ZM451.778 184.082C450.696 183.746 449.37 183.858 447.8 184.417C446.23 184.977 445.138 185.727 444.525 186.667C443.899 187.612 443.75 188.543 444.077 189.46C444.403 190.377 445.108 191.003 446.19 191.339C447.26 191.68 448.58 191.571 450.15 191.011C451.72 190.451 452.818 189.699 453.443 188.754C454.056 187.814 454.2 186.885 453.873 185.968C453.546 185.051 452.848 184.423 451.778 184.082ZM445.356 193.229C443.775 192.646 442.721 191.613 442.193 190.131C441.664 188.649 441.828 187.183 442.684 185.731C443.539 184.28 445.01 183.182 447.095 182.439C449.179 181.696 451.012 181.616 452.593 182.199C454.174 182.782 455.229 183.815 455.757 185.297C456.285 186.779 456.121 188.246 455.266 189.697C454.41 191.149 452.94 192.246 450.855 192.989C448.77 193.732 446.937 193.812 445.356 193.229ZM452.378 176.412L450.682 177.017L443.285 173.538C442.791 173.304 442.381 173.167 442.056 173.127C441.713 173.079 441.316 173.136 440.864 173.297C440.148 173.552 439.665 173.944 439.414 174.472C439.146 174.992 439.133 175.591 439.375 176.27C439.612 176.935 440.05 177.409 440.689 177.691C441.327 177.973 442.017 177.982 442.758 177.718L443.463 179.696C442.144 180.166 440.933 180.145 439.83 179.632C438.728 179.119 437.948 178.222 437.491 176.941C437.035 175.66 437.053 174.5 437.546 173.461C438.022 172.413 438.882 171.668 440.125 171.225C440.841 170.97 441.521 170.912 442.165 171.05C442.804 171.176 443.541 171.437 444.376 171.833L449.359 174.197L449.453 174.164L447.405 168.418L449.289 167.746L452.378 176.412ZM444.381 165.89L443.676 163.912C444.216 163.72 444.615 163.309 444.871 162.679C445.111 162.042 445.101 161.359 444.842 160.63C444.564 159.852 444.161 159.316 443.632 159.023C443.103 158.731 442.525 158.696 441.897 158.92C441.306 159.13 440.899 159.537 440.676 160.141C440.435 160.736 440.453 161.423 440.731 162.202L441.033 163.05L439.243 163.687L438.941 162.84C438.681 162.111 438.296 161.605 437.784 161.32C437.255 161.027 436.701 160.984 436.124 161.19C435.584 161.382 435.212 161.749 435.008 162.288C434.787 162.82 434.799 163.431 435.046 164.122C435.296 164.825 435.682 165.332 436.203 165.642C436.707 165.943 437.229 165.998 437.769 165.805L438.474 167.784C437.419 168.16 436.386 168.082 435.376 167.55C434.361 167.006 433.623 166.087 433.162 164.794C432.714 163.538 432.716 162.39 433.166 161.352C433.613 160.301 434.364 159.588 435.419 159.212C436.273 158.907 437.113 158.962 437.94 159.375C438.302 159.557 438.627 159.795 438.916 160.088L439.01 160.055C439.047 159.603 439.144 159.179 439.3 158.784C439.695 157.865 440.356 157.24 441.286 156.908C442.391 156.514 443.462 156.6 444.498 157.165C445.518 157.721 446.26 158.653 446.726 159.959C447.205 161.303 447.217 162.53 446.764 163.64C446.293 164.742 445.499 165.492 444.381 165.89Z" fill="#6B7280"/>
<path d="M195.697 345.226L192.407 335.994L194.121 335.383L195.437 339.076L199.591 337.595L198.275 333.903L199.99 333.292L203.28 342.523L201.566 343.134L200.202 339.31L196.048 340.79L197.412 344.614L195.697 345.226ZM211.847 339.469L211.853 329.063L214.359 328.17L220.946 336.226L219.034 336.908L217.63 335.179L213.753 336.561L213.759 338.788L211.847 339.469ZM213.742 334.781L216.512 333.794L213.943 330.548L213.679 330.642L213.742 334.781ZM240.403 329.291L237.113 320.06L241.399 318.533C242.19 318.251 242.912 318.261 243.565 318.563C244.217 318.866 244.68 319.399 244.953 320.164C245.156 320.735 245.181 321.291 245.027 321.832C244.941 322.091 244.843 322.304 244.735 322.471L244.758 322.537C244.992 322.582 245.224 322.678 245.455 322.824C245.963 323.138 246.325 323.599 246.542 324.205C246.814 324.97 246.793 325.676 246.479 326.323C246.165 326.97 245.612 327.435 244.821 327.717L240.403 329.291ZM240.19 323.273L242.564 322.427C242.898 322.308 243.13 322.112 243.26 321.837C243.396 321.551 243.404 321.241 243.285 320.907C243.154 320.538 242.949 320.284 242.672 320.145C242.394 320.006 242.084 319.997 241.741 320.12L239.368 320.966L240.19 323.273ZM241.577 327.164L244.082 326.271C244.381 326.164 244.6 325.957 244.738 325.65C244.885 325.34 244.899 325.018 244.78 324.684C244.661 324.35 244.447 324.11 244.137 323.963C243.835 323.812 243.535 323.79 243.236 323.897L240.731 324.79L241.577 327.164ZM261.978 317.886L263.758 317.251C263.793 317.516 263.805 317.799 263.794 318.101C263.791 318.399 263.735 318.756 263.625 319.171C263.522 319.575 263.37 319.956 263.171 320.314C262.971 320.673 262.67 321.023 262.267 321.365C261.861 321.698 261.38 321.963 260.827 322.161C259.561 322.612 258.337 322.543 257.156 321.953C255.975 321.363 255.14 320.383 254.651 319.011C254.162 317.64 254.188 316.352 254.73 315.148C255.272 313.944 256.176 313.117 257.442 312.666C257.961 312.481 258.468 312.389 258.964 312.391C259.466 312.38 259.909 312.441 260.292 312.571C260.676 312.702 261.038 312.885 261.379 313.12C261.718 313.346 261.998 313.578 262.222 313.816C262.445 314.053 262.636 314.297 262.795 314.548L261.015 315.182C260.676 314.788 260.248 314.49 259.73 314.288C259.221 314.083 258.654 314.092 258.03 314.314C257.221 314.602 256.659 315.125 256.344 315.881C256.026 316.628 256.033 317.468 256.365 318.4C256.697 319.332 257.224 319.991 257.947 320.378C258.666 320.756 259.43 320.8 260.239 320.512C260.872 320.286 261.319 319.929 261.581 319.439C261.851 318.947 261.983 318.429 261.978 317.886ZM273.972 317.327L270.681 308.096L272.396 307.484L273.735 311.243L274.843 310.848C274.602 309.616 274.746 308.505 275.275 307.514C275.812 306.519 276.617 305.831 277.69 305.449C278.903 305.017 280.076 305.099 281.211 305.695C282.35 306.28 283.169 307.271 283.668 308.669C284.166 310.067 284.16 311.357 283.65 312.539C283.146 313.71 282.287 314.511 281.074 314.944C279.992 315.329 278.926 315.298 277.875 314.85C276.823 314.403 276.009 313.618 275.431 312.496L274.323 312.891L275.686 316.716L273.972 317.327ZM278.344 313.123C279.025 313.504 279.739 313.562 280.486 313.295C281.234 313.029 281.75 312.533 282.036 311.807C282.322 311.08 282.295 310.238 281.953 309.28C281.612 308.322 281.1 307.652 280.419 307.27C279.739 306.889 279.024 306.831 278.277 307.097C277.53 307.364 277.013 307.86 276.727 308.586C276.441 309.312 276.469 310.155 276.81 311.113C277.152 312.071 277.663 312.741 278.344 313.123ZM304.177 306.561L305.607 300.775L301.15 297.236L303.26 296.484L307.247 299.745L305.766 295.591L307.48 294.979L308.961 299.133L309.986 294.086L312.096 293.334L310.882 298.895L315.65 302.472L313.54 303.224L309.243 299.925L310.771 304.211L309.056 304.822L307.529 300.536L306.287 305.809L304.177 306.561ZM324.022 299.488L320.732 290.256L322.446 289.645L324.726 296.041L324.989 295.947L326.007 288.376L328.314 287.554L331.605 296.785L329.89 297.396L327.611 291L327.347 291.094L326.33 298.665L324.022 299.488ZM339.646 290.798L341.36 290.187C341.492 290.556 341.752 290.815 342.142 290.963C342.532 291.112 343.021 291.081 343.61 290.871C344.208 290.658 344.623 290.376 344.855 290.026C345.087 289.676 345.139 289.32 345.01 288.96C344.885 288.608 344.63 288.367 344.247 288.236C343.869 288.093 343.425 288.113 342.915 288.295L341.992 288.624L341.475 287.173L342.398 286.844C342.873 286.675 343.204 286.438 343.393 286.133C343.59 285.825 343.639 285.53 343.539 285.249C343.407 284.879 343.151 284.619 342.77 284.467C342.389 284.316 341.917 284.34 341.354 284.541C340.844 284.723 340.485 284.994 340.277 285.356C340.075 285.705 340.041 286.069 340.176 286.447L338.461 287.058C338.161 286.214 338.216 285.412 338.629 284.65C339.041 283.889 339.762 283.325 340.79 282.958C341.836 282.586 342.761 282.553 343.565 282.861C344.374 283.158 344.913 283.684 345.182 284.44C345.402 285.055 345.373 285.64 345.095 286.195C344.981 286.404 344.82 286.605 344.611 286.798L344.635 286.864C344.939 286.885 345.219 286.948 345.476 287.055C346.089 287.302 346.521 287.778 346.771 288.481C347.044 289.246 346.956 290 346.508 290.745C346.06 291.489 345.282 292.058 344.174 292.453C343.084 292.842 342.13 292.875 341.311 292.552C340.502 292.227 339.947 291.642 339.646 290.798ZM356.856 287.785L353.566 278.553L355.28 277.942L356.597 281.635L360.751 280.154L359.435 276.462L361.149 275.851L364.439 285.082L362.725 285.693L361.362 281.869L357.208 283.349L358.571 287.174L356.856 287.785ZM375.122 279.417L377.429 278.594C377.807 278.459 378.071 278.212 378.22 277.851C378.378 277.488 378.382 277.095 378.231 276.673C378.081 276.251 377.829 275.95 377.477 275.768C377.134 275.583 376.773 275.558 376.395 275.693L374.088 276.515L375.122 279.417ZM373.995 281.676L370.705 272.445L372.419 271.834L373.5 274.867L375.874 274.021C376.735 273.714 377.546 273.752 378.307 274.134C379.073 274.505 379.62 275.148 379.945 276.062C380.271 276.977 380.256 277.824 379.901 278.605C379.55 279.374 378.944 279.912 378.083 280.219L373.995 281.676Z" fill="black"/>
<path d="M408.249 231.69L410.825 231.348L411.167 233.924L408.591 234.266L408.249 231.69Z" fill="#6B7280"/>
<path fill-rule="evenodd" clip-rule="evenodd" d="M410.758 231.436L408.337 231.757L408.658 234.178L411.079 233.857L410.758 231.436ZM408.249 231.69L408.591 234.266L411.167 233.924L410.825 231.348L408.249 231.69Z" fill="#6B7280"/>
<path d="M407.907 229.115L410.483 228.772L410.825 231.348L408.249 231.69L407.907 229.115Z" fill="#6B7280"/>
<path fill-rule="evenodd" clip-rule="evenodd" d="M410.416 228.86L407.995 229.182L408.316 231.603L410.737 231.281L410.416 228.86ZM407.907 229.115L408.249 231.69L410.825 231.348L410.483 228.772L407.907 229.115Z" fill="#6B7280"/>
<path d="M407.603 226.825L410.178 226.483L410.483 228.772L407.907 229.115L407.603 226.825Z" fill="#6B7280"/>
<path fill-rule="evenodd" clip-rule="evenodd" d="M410.11 226.562L407.689 226.884L407.975 229.036L410.396 228.714L410.11 226.562ZM407.603 226.825L407.907 229.115L410.483 228.772L410.178 226.483L407.603 226.825Z" fill="#6B7280"/>
<path d="M407.223 223.963L409.798 223.621L410.179 226.483L407.603 226.825L407.223 223.963Z" fill="#6B7280"/>
<path fill-rule="evenodd" clip-rule="evenodd" d="M409.733 223.717L407.312 224.039L407.669 226.729L410.09 226.407L409.733 223.717ZM407.223 223.963L407.603 226.825L410.179 226.483L409.798 223.621L407.223 223.963Z" fill="#6B7280"/>
<path d="M406.919 221.674L409.494 221.332L409.798 223.621L407.223 223.963L406.919 221.674Z" fill="#6B7280"/>
<path fill-rule="evenodd" clip-rule="evenodd" d="M409.426 221.411L407.005 221.732L407.291 223.884L409.712 223.563L409.426 221.411ZM406.919 221.674L407.223 223.963L409.798 223.621L409.494 221.332L406.919 221.674Z" fill="#6B7280"/>
<path d="M410.179 226.483L412.468 226.179L412.772 228.468L410.483 228.772L410.179 226.483Z" fill="#6B7280"/>
<path fill-rule="evenodd" clip-rule="evenodd" d="M412.408 226.257L410.256 226.543L410.542 228.695L412.694 228.409L412.408 226.257ZM410.179 226.483L410.483 228.772L412.772 228.468L412.468 226.179L410.179 226.483Z" fill="#6B7280"/>
<path d="M412.468 226.179L415.33 225.799L415.634 228.088L412.772 228.468L412.468 226.179Z" fill="#6B7280"/>
<path fill-rule="evenodd" clip-rule="evenodd" d="M415.253 225.879L412.563 226.236L412.849 228.388L415.539 228.031L415.253 225.879ZM412.468 226.179L412.772 228.468L415.634 228.088L415.33 225.799L412.468 226.179Z" fill="#6B7280"/>
<path d="M415.33 225.799L417.619 225.495L417.923 227.784L415.634 228.088L415.33 225.799Z" fill="#6B7280"/>
<path fill-rule="evenodd" clip-rule="evenodd" d="M417.559 225.573L415.407 225.858L415.693 228.01L417.845 227.725L417.559 225.573ZM415.33 225.799L415.634 228.088L417.923 227.784L417.619 225.495L415.33 225.799Z" fill="#6B7280"/>
<path d="M415.634 228.088L417.923 227.784L418.265 230.36L415.976 230.664L415.634 228.088Z" fill="#6B7280"/>
<path fill-rule="evenodd" clip-rule="evenodd" d="M417.865 227.871L415.713 228.156L416.034 230.577L418.186 230.292L417.865 227.871ZM415.634 228.088L415.976 230.664L418.265 230.36L417.923 227.784L415.634 228.088Z" fill="#6B7280"/>
<path d="M415.976 230.664L418.265 230.36L418.607 232.935L416.318 233.239L415.976 230.664Z" fill="#6B7280"/>
<path fill-rule="evenodd" clip-rule="evenodd" d="M418.207 230.446L416.055 230.732L416.376 233.153L418.528 232.867L418.207 230.446ZM415.976 230.664L416.318 233.239L418.607 232.935L418.265 230.36L415.976 230.664Z" fill="#6B7280"/>
<path d="M413.456 233.619L416.318 233.239L416.622 235.529L413.76 235.909L413.456 233.619Z" fill="#6B7280"/>
<path fill-rule="evenodd" clip-rule="evenodd" d="M416.241 233.319L413.551 233.677L413.837 235.829L416.527 235.471L416.241 233.319ZM413.456 233.619L413.76 235.909L416.622 235.529L416.318 233.239L413.456 233.619Z" fill="#6B7280"/>
<path d="M411.471 236.213L413.76 235.909L414.102 238.484L411.813 238.789L411.471 236.213Z" fill="#6B7280"/>
<path fill-rule="evenodd" clip-rule="evenodd" d="M413.702 235.995L411.55 236.281L411.871 238.702L414.023 238.416L413.702 235.995ZM411.471 236.213L411.813 238.789L414.102 238.484L413.76 235.909L411.471 236.213Z" fill="#6B7280"/>
<path d="M404.343 222.016L406.919 221.674L407.223 223.963L404.647 224.305L404.343 222.016Z" fill="#6B7280"/>
<path fill-rule="evenodd" clip-rule="evenodd" d="M406.851 221.753L404.43 222.075L404.715 224.227L407.136 223.905L406.851 221.753ZM404.343 222.016L404.647 224.305L407.223 223.963L406.919 221.674L404.343 222.016Z" fill="#6B7280"/>
<path d="M402.054 222.32L404.343 222.016L404.647 224.305L402.358 224.61L402.054 222.32Z" fill="#6B7280"/>
<path fill-rule="evenodd" clip-rule="evenodd" d="M404.284 222.094L402.132 222.38L402.417 224.532L404.569 224.246L404.284 222.094ZM402.054 222.32L402.358 224.61L404.647 224.305L404.343 222.016L402.054 222.32Z" fill="#6B7280"/>
<path d="M399.478 222.662L402.054 222.32L402.358 224.61L399.782 224.952L399.478 222.662Z" fill="#6B7280"/>
<path fill-rule="evenodd" clip-rule="evenodd" d="M401.986 222.399L399.565 222.721L399.85 224.873L402.271 224.551L401.986 222.399ZM399.478 222.662L399.782 224.952L402.358 224.61L402.054 222.32L399.478 222.662Z" fill="#6B7280"/>
<path d="M396.903 223.004L399.478 222.662L399.782 224.952L397.207 225.294L396.903 223.004Z" fill="#6B7280"/>
<path fill-rule="evenodd" clip-rule="evenodd" d="M399.41 222.741L396.989 223.063L397.275 225.215L399.696 224.893L399.41 222.741ZM396.903 223.004L397.207 225.294L399.782 224.952L399.478 222.662L396.903 223.004Z" fill="#6B7280"/>
<path d="M400.552 250.477L403.127 250.135L403.469 252.711L400.894 253.053L400.552 250.477Z" fill="#6B7280"/>
<path fill-rule="evenodd" clip-rule="evenodd" d="M403.06 250.223L400.639 250.544L400.961 252.965L403.382 252.644L403.06 250.223ZM400.552 250.477L400.894 253.053L403.469 252.711L403.127 250.135L400.552 250.477Z" fill="#6B7280"/>
<path d="M400.894 253.053L403.469 252.711L403.773 255L401.198 255.342L400.894 253.053Z" fill="#6B7280"/>
<path fill-rule="evenodd" clip-rule="evenodd" d="M403.401 252.79L400.98 253.111L401.266 255.263L403.687 254.942L403.401 252.79ZM400.894 253.053L401.198 255.342L403.773 255L403.469 252.711L400.894 253.053Z" fill="#6B7280"/>
<path d="M401.198 255.342L403.773 255L404.154 257.862L401.578 258.204L401.198 255.342Z" fill="#6B7280"/>
<path fill-rule="evenodd" clip-rule="evenodd" d="M403.708 255.096L401.287 255.418L401.644 258.108L404.065 257.786L403.708 255.096ZM401.198 255.342L401.578 258.204L404.154 257.862L403.773 255L401.198 255.342Z" fill="#6B7280"/>
<path d="M401.578 258.204L404.154 257.862L404.458 260.151L401.882 260.493L401.578 258.204Z" fill="#6B7280"/>
<path fill-rule="evenodd" clip-rule="evenodd" d="M404.085 257.941L401.664 258.262L401.95 260.414L404.371 260.093L404.085 257.941ZM401.578 258.204L401.882 260.493L404.458 260.151L404.154 257.862L401.578 258.204Z" fill="#6B7280"/>
<path d="M403.773 255L406.349 254.658L406.729 257.52L404.154 257.862L403.773 255Z" fill="#6B7280"/>
<path fill-rule="evenodd" clip-rule="evenodd" d="M406.283 254.754L403.862 255.076L404.219 257.766L406.64 257.444L406.283 254.754ZM403.773 255L404.154 257.862L406.729 257.52L406.349 254.658L403.773 255Z" fill="#6B7280"/>
<path d="M404.154 257.862L406.729 257.52L407.033 259.809L404.458 260.151L404.154 257.862Z" fill="#6B7280"/>
<path fill-rule="evenodd" clip-rule="evenodd" d="M406.661 257.599L404.24 257.92L404.526 260.072L406.947 259.751L406.661 257.599ZM404.154 257.862L404.458 260.151L407.033 259.809L406.729 257.52L404.154 257.862Z" fill="#6B7280"/>
<path d="M406.729 257.52L409.019 257.216L409.323 259.505L407.033 259.809L406.729 257.52Z" fill="#6B7280"/>
<path fill-rule="evenodd" clip-rule="evenodd" d="M408.959 257.293L406.807 257.579L407.093 259.731L409.245 259.445L408.959 257.293ZM406.729 257.52L407.033 259.809L409.323 259.505L409.019 257.216L406.729 257.52Z" fill="#6B7280"/>
<path d="M398.622 255.684L401.198 255.342L401.578 258.204L399.002 258.546L398.622 255.684Z" fill="#6B7280"/>
<path fill-rule="evenodd" clip-rule="evenodd" d="M401.132 255.438L398.711 255.76L399.068 258.45L401.489 258.128L401.132 255.438ZM398.622 255.684L399.002 258.546L401.578 258.204L401.198 255.342L398.622 255.684Z" fill="#6B7280"/>
<path d="M399.002 258.546L401.578 258.204L401.882 260.493L399.307 260.835L399.002 258.546Z" fill="#6B7280"/>
<path fill-rule="evenodd" clip-rule="evenodd" d="M401.51 258.283L399.089 258.604L399.375 260.756L401.796 260.435L401.51 258.283ZM399.002 258.546L399.307 260.835L401.882 260.493L401.578 258.204L399.002 258.546Z" fill="#6B7280"/>
<path d="M396.713 258.85L399.002 258.546L399.307 260.835L397.017 261.139L396.713 258.85Z" fill="#6B7280"/>
<path fill-rule="evenodd" clip-rule="evenodd" d="M398.943 258.624L396.791 258.91L397.077 261.062L399.229 260.776L398.943 258.624ZM396.713 258.85L397.017 261.139L399.307 260.835L399.002 258.546L396.713 258.85Z" fill="#6B7280"/>
<path d="M394.327 223.346L396.903 223.004L397.207 225.294L394.631 225.636L394.327 223.346Z" fill="#6B7280"/>
<path fill-rule="evenodd" clip-rule="evenodd" d="M396.835 223.083L394.413 223.405L394.699 225.557L397.12 225.235L396.835 223.083ZM394.327 223.346L394.631 225.636L397.207 225.294L396.903 223.004L394.327 223.346Z" fill="#6B7280"/>
<path d="M388.217 234.351L390.792 234.009L391.135 236.584L388.559 236.926L388.217 234.351Z" fill="#6B7280"/>
<path fill-rule="evenodd" clip-rule="evenodd" d="M390.725 234.096L388.304 234.418L388.626 236.839L391.047 236.517L390.725 234.096ZM388.217 234.351L388.559 236.926L391.135 236.584L390.792 234.009L388.217 234.351Z" fill="#6B7280"/>
<path d="M393.368 233.667L395.657 233.363L396 235.938L393.71 236.242L393.368 233.667Z" fill="#6B7280"/>
<path fill-rule="evenodd" clip-rule="evenodd" d="M395.599 233.449L393.447 233.735L393.769 236.156L395.921 235.87L395.599 233.449ZM393.368 233.667L393.71 236.242L396 235.938L395.657 233.363L393.368 233.667Z" fill="#6B7280"/>
<path d="M387.875 231.775L390.45 231.433L390.792 234.009L388.217 234.351L387.875 231.775Z" fill="#6B7280"/>
<path fill-rule="evenodd" clip-rule="evenodd" d="M390.383 231.521L387.962 231.842L388.284 234.263L390.705 233.942L390.383 231.521ZM387.875 231.775L388.217 234.351L390.792 234.009L390.45 231.433L387.875 231.775Z" fill="#6B7280"/>
<path d="M393.026 231.091L395.315 230.787L395.657 233.363L393.368 233.667L393.026 231.091Z" fill="#6B7280"/>
<path fill-rule="evenodd" clip-rule="evenodd" d="M395.257 230.873L393.105 231.159L393.427 233.58L395.579 233.294L395.257 230.873ZM393.026 231.091L393.368 233.667L395.657 233.363L395.315 230.787L393.026 231.091Z" fill="#6B7280"/>
<path d="M388.559 236.926L391.135 236.584L391.439 238.874L388.863 239.216L388.559 236.926Z" fill="#6B7280"/>
<path fill-rule="evenodd" clip-rule="evenodd" d="M391.067 236.663L388.645 236.985L388.931 239.137L391.352 238.815L391.067 236.663ZM388.559 236.926L388.863 239.216L391.439 238.874L391.135 236.584L388.559 236.926Z" fill="#6B7280"/>
<path d="M388.863 239.216L391.439 238.874L391.781 241.449L389.205 241.791L388.863 239.216Z" fill="#6B7280"/>
<path fill-rule="evenodd" clip-rule="evenodd" d="M391.372 238.961L388.951 239.283L389.272 241.704L391.693 241.382L391.372 238.961ZM388.863 239.216L389.205 241.791L391.781 241.449L391.439 238.874L388.863 239.216Z" fill="#6B7280"/>
<path d="M394.014 238.532L396.304 238.228L396.646 240.803L394.356 241.107L394.014 238.532Z" fill="#6B7280"/>
<path fill-rule="evenodd" clip-rule="evenodd" d="M396.245 238.314L394.093 238.6L394.415 241.021L396.567 240.735L396.245 238.314ZM394.014 238.532L394.356 241.107L396.646 240.803L396.304 238.228L394.014 238.532Z" fill="#6B7280"/>
<path d="M386.574 239.52L388.863 239.216L389.205 241.791L386.916 242.095L386.574 239.52Z" fill="#6B7280"/>
<path fill-rule="evenodd" clip-rule="evenodd" d="M388.805 239.302L386.653 239.588L386.974 242.009L389.126 241.723L388.805 239.302ZM386.574 239.52L386.916 242.095L389.205 241.791L388.863 239.216L386.574 239.52Z" fill="#6B7280"/>
<path d="M383.408 237.611L386.27 237.231L386.574 239.52L383.712 239.9L383.408 237.611Z" fill="#6B7280"/>
<path fill-rule="evenodd" clip-rule="evenodd" d="M386.193 237.311L383.503 237.668L383.789 239.82L386.479 239.463L386.193 237.311ZM383.408 237.611L383.712 239.9L386.574 239.52L386.27 237.231L383.408 237.611Z" fill="#6B7280"/>
<path d="M380.776 235.339L383.066 235.035L383.408 237.611L381.118 237.915L380.776 235.339Z" fill="#6B7280"/>
<path fill-rule="evenodd" clip-rule="evenodd" d="M383.007 235.121L380.855 235.407L381.177 237.828L383.329 237.542L383.007 235.121ZM380.776 235.339L381.118 237.915L383.408 237.611L383.066 235.035L380.776 235.339Z" fill="#6B7280"/>
<path d="M380.434 232.764L382.724 232.459L383.066 235.035L380.776 235.339L380.434 232.764Z" fill="#6B7280"/>
<path fill-rule="evenodd" clip-rule="evenodd" d="M382.665 232.546L380.513 232.832L380.835 235.253L382.987 234.967L382.665 232.546ZM380.434 232.764L380.776 235.339L383.066 235.035L382.724 232.459L380.434 232.764Z" fill="#6B7280"/>
<path d="M389.205 241.791L391.781 241.449L392.123 244.025L389.547 244.367L389.205 241.791Z" fill="#6B7280"/>
<path fill-rule="evenodd" clip-rule="evenodd" d="M391.714 241.537L389.293 241.858L389.614 244.279L392.035 243.958L391.714 241.537ZM389.205 241.791L389.547 244.367L392.123 244.025L391.781 241.449L389.205 241.791Z" fill="#6B7280"/>
<path d="M392.123 244.025L394.698 243.683L395.041 246.258L392.465 246.6L392.123 244.025Z" fill="#6B7280"/>
<path fill-rule="evenodd" clip-rule="evenodd" d="M394.631 243.77L392.21 244.092L392.532 246.513L394.953 246.191L394.631 243.77ZM392.123 244.025L392.465 246.6L395.041 246.258L394.698 243.683L392.123 244.025Z" fill="#6B7280"/>
<path d="M395.041 246.258L397.33 245.954L397.634 248.244L395.345 248.548L395.041 246.258Z" fill="#6B7280"/>
<path fill-rule="evenodd" clip-rule="evenodd" d="M397.27 246.032L395.118 246.318L395.404 248.47L397.556 248.184L397.27 246.032ZM395.041 246.258L395.345 248.548L397.634 248.244L397.33 245.954L395.041 246.258Z" fill="#6B7280"/>
<path d="M397.634 248.244L400.21 247.902L400.552 250.477L397.976 250.819L397.634 248.244Z" fill="#6B7280"/>
<path fill-rule="evenodd" clip-rule="evenodd" d="M400.143 247.989L397.722 248.311L398.043 250.732L400.464 250.41L400.143 247.989ZM397.634 248.244L397.976 250.819L400.552 250.477L400.21 247.902L397.634 248.244Z" fill="#6B7280"/>
<path d="M392.038 223.651L394.327 223.346L394.631 225.636L392.342 225.94L392.038 223.651Z" fill="#6B7280"/>
<path fill-rule="evenodd" clip-rule="evenodd" d="M394.268 223.424L392.116 223.71L392.401 225.862L394.553 225.576L394.268 223.424ZM392.038 223.651L392.342 225.94L394.631 225.636L394.327 223.346L392.038 223.651Z" fill="#6B7280"/>
<path d="M389.462 223.993L392.038 223.651L392.342 225.94L389.766 226.282L389.462 223.993Z" fill="#6B7280"/>
<path fill-rule="evenodd" clip-rule="evenodd" d="M391.97 223.73L389.548 224.051L389.834 226.203L392.255 225.882L391.97 223.73ZM389.462 223.993L389.766 226.282L392.342 225.94L392.038 223.651L389.462 223.993Z" fill="#6B7280"/>
<path d="M387.571 229.486L390.146 229.144L390.45 231.433L387.875 231.775L387.571 229.486Z" fill="#6B7280"/>
<path fill-rule="evenodd" clip-rule="evenodd" d="M390.078 229.223L387.657 229.544L387.943 231.696L390.364 231.375L390.078 229.223ZM387.571 229.486L387.875 231.775L390.45 231.433L390.146 229.144L387.571 229.486Z" fill="#6B7280"/>
<path d="M392.722 228.802L395.011 228.498L395.315 230.787L393.026 231.091L392.722 228.802Z" fill="#6B7280"/>
<path fill-rule="evenodd" clip-rule="evenodd" d="M394.952 228.575L392.8 228.861L393.086 231.013L395.238 230.727L394.952 228.575ZM392.722 228.802L393.026 231.091L395.315 230.787L395.011 228.498L392.722 228.802Z" fill="#6B7280"/>
<path d="M387.191 226.624L389.766 226.282L390.146 229.144L387.571 229.486L387.191 226.624Z" fill="#6B7280"/>
<path fill-rule="evenodd" clip-rule="evenodd" d="M389.7 226.378L387.279 226.7L387.637 229.39L390.058 229.068L389.7 226.378ZM387.191 226.624L387.571 229.486L390.146 229.144L389.766 226.282L387.191 226.624Z" fill="#6B7280"/>
<path d="M386.887 224.335L389.462 223.993L389.766 226.282L387.191 226.624L386.887 224.335Z" fill="#6B7280"/>
<path fill-rule="evenodd" clip-rule="evenodd" d="M389.394 224.072L386.973 224.393L387.259 226.545L389.68 226.224L389.394 224.072ZM386.887 224.335L387.191 226.624L389.766 226.282L389.462 223.993L386.887 224.335Z" fill="#6B7280"/>
<path d="M385.281 229.79L387.571 229.486L387.875 231.775L385.585 232.079L385.281 229.79Z" fill="#6B7280"/>
<path fill-rule="evenodd" clip-rule="evenodd" d="M387.511 229.564L385.359 229.85L385.645 232.002L387.797 231.716L387.511 229.564ZM385.281 229.79L385.585 232.079L387.875 231.775L387.571 229.486L385.281 229.79Z" fill="#6B7280"/>
<path d="M380.13 230.474L382.42 230.17L382.724 232.459L380.434 232.764L380.13 230.474Z" fill="#6B7280"/>
<path fill-rule="evenodd" clip-rule="evenodd" d="M382.36 230.248L380.208 230.534L380.494 232.686L382.646 232.4L382.36 230.248ZM380.13 230.474L380.434 232.764L382.724 232.459L382.42 230.17L380.13 230.474Z" fill="#6B7280"/>
<path d="M382.42 230.17L385.281 229.79L385.585 232.079L382.724 232.46L382.42 230.17Z" fill="#6B7280"/>
<path fill-rule="evenodd" clip-rule="evenodd" d="M385.205 229.87L382.515 230.227L382.8 232.379L385.49 232.022L385.205 229.87ZM382.42 230.17L382.724 232.46L385.585 232.079L385.281 229.79L382.42 230.17Z" fill="#6B7280"/>
<path d="M408.591 234.266L411.167 233.924L411.471 236.213L408.895 236.555L408.591 234.266Z" fill="#6B7280"/>
<path fill-rule="evenodd" clip-rule="evenodd" d="M411.099 234.003L408.678 234.324L408.963 236.476L411.385 236.155L411.099 234.003ZM408.591 234.266L408.895 236.555L411.471 236.213L411.167 233.924L408.591 234.266Z" fill="#6B7280"/>
<path d="M408.895 236.555L411.471 236.213L411.813 238.789L409.237 239.131L408.895 236.555Z" fill="#6B7280"/>
<path fill-rule="evenodd" clip-rule="evenodd" d="M411.404 236.3L408.983 236.622L409.304 239.043L411.725 238.722L411.404 236.3ZM408.895 236.555L409.237 239.131L411.813 238.789L411.471 236.213L408.895 236.555Z" fill="#6B7280"/>
<path d="M409.237 239.131L411.813 238.789L412.155 241.364L409.58 241.706L409.237 239.131Z" fill="#6B7280"/>
<path fill-rule="evenodd" clip-rule="evenodd" d="M411.746 238.876L409.325 239.198L409.647 241.619L412.068 241.297L411.746 238.876ZM409.237 239.131L409.58 241.706L412.155 241.364L411.813 238.789L409.237 239.131Z" fill="#6B7280"/>
<path d="M407.004 242.048L409.58 241.706L409.922 244.282L407.346 244.624L407.004 242.048Z" fill="#6B7280"/>
<path fill-rule="evenodd" clip-rule="evenodd" d="M409.513 241.794L407.091 242.115L407.413 244.536L409.834 244.215L409.513 241.794ZM407.004 242.048L407.346 244.624L409.922 244.282L409.58 241.706L407.004 242.048Z" fill="#6B7280"/>
<path d="M405.057 244.928L407.346 244.624L407.65 246.913L405.361 247.217L405.057 244.928Z" fill="#6B7280"/>
<path fill-rule="evenodd" clip-rule="evenodd" d="M407.286 244.702L405.134 244.987L405.42 247.14L407.572 246.854L407.286 244.702ZM405.057 244.928L405.361 247.217L407.65 246.913L407.346 244.624L405.057 244.928Z" fill="#6B7280"/>
<path d="M402.785 247.559L405.361 247.217L405.703 249.793L403.127 250.135L402.785 247.559Z" fill="#6B7280"/>
<path fill-rule="evenodd" clip-rule="evenodd" d="M405.294 247.305L402.873 247.626L403.194 250.047L405.615 249.726L405.294 247.305ZM402.785 247.559L403.127 250.135L405.703 249.793L405.361 247.217L402.785 247.559Z" fill="#6B7280"/>
<defs>
<filter id="filter0_f_20_47" x="311.371" y="0.488693" width="266.149" height="256.932" filterUnits="userSpaceOnUse" color-interpolation-filters="sRGB">
<feFlood flood-opacity="0" result="BackgroundImageFix"/>
<feBlend mode="normal" in="SourceGraphic" in2="BackgroundImageFix" result="shape"/>
<feGaussianBlur stdDeviation="28" result="effect1_foregroundBlur_20_47"/>
</filter>
<filter id="filter1_f_20_47" x="0.240265" y="119.944" width="268.811" height="269.272" filterUnits="userSpaceOnUse" color-interpolation-filters="sRGB">
<feFlood flood-opacity="0" result="BackgroundImageFix"/>
<feBlend mode="normal" in="SourceGraphic" in2="BackgroundImageFix" result="shape"/>
<feGaussianBlur stdDeviation="46.5" result="effect1_foregroundBlur_20_47"/>
</filter>
<filter id="filter2_f_20_47" x="137.363" y="362.735" width="218.753" height="210.52" filterUnits="userSpaceOnUse" color-interpolation-filters="sRGB">
<feFlood flood-opacity="0" result="BackgroundImageFix"/>
<feBlend mode="normal" in="SourceGraphic" in2="BackgroundImageFix" result="shape"/>
<feGaussianBlur stdDeviation="27" result="effect1_foregroundBlur_20_47"/>
</filter>
<radialGradient id="paint0_radial_20_47" cx="0" cy="0" r="1" gradientUnits="userSpaceOnUse" gradientTransform="translate(181.318 171.859) rotate(90) scale(171.859 181.318)">
<stop stop-color="#D1C9FF"/>
<stop offset="0.0001" stop-color="#D1C9FF" stop-opacity="0.822917"/>
<stop offset="1" stop-color="#D1C9FF" stop-opacity="0"/>
</radialGradient>
</defs>
</svg>
